<mxfile host="app.diagrams.net" modified="2022-06-23T07:12:28.382Z" agent="5.0 (X11; Linux x86_64) AppleWebKit/537.36 (KHTML, like Gecko) Chrome/89.0.4389.90 Safari/537.36" etag="wQt4gNTDKtEW429PbzPI" version="20.0.1" type="github">
  <diagram id="lDo2medRJP3sNJqHOw3p" name="Page-1">
    <mxGraphModel dx="1185" dy="603" grid="1" gridSize="10" guides="1" tooltips="1" connect="1" arrows="1" fold="1" page="1" pageScale="1" pageWidth="827" pageHeight="1169" math="0" shadow="0">
      <root>
        <mxCell id="0" />
        <mxCell id="1" parent="0" />
        <mxCell id="EIXveCIq_tYeN85T5rE7-9" value="" style="rounded=1;whiteSpace=wrap;html=1;dashed=1;" vertex="1" parent="1">
          <mxGeometry x="180" y="270" width="500" height="300" as="geometry" />
        </mxCell>
        <mxCell id="EIXveCIq_tYeN85T5rE7-16" value="" style="rounded=1;whiteSpace=wrap;html=1;dashed=1;" vertex="1" parent="1">
          <mxGeometry x="320" y="455" width="110" height="40" as="geometry" />
        </mxCell>
        <mxCell id="EIXveCIq_tYeN85T5rE7-12" value="" style="rounded=1;whiteSpace=wrap;html=1;dashed=1;" vertex="1" parent="1">
          <mxGeometry x="480" y="420" width="150" height="110" as="geometry" />
        </mxCell>
        <mxCell id="EIXveCIq_tYeN85T5rE7-1" value="ApiServer" style="rounded=1;whiteSpace=wrap;html=1;" vertex="1" parent="1">
          <mxGeometry x="110" y="120" width="120" height="60" as="geometry" />
        </mxCell>
        <mxCell id="EIXveCIq_tYeN85T5rE7-2" value="ControllerManager" style="rounded=1;whiteSpace=wrap;html=1;" vertex="1" parent="1">
          <mxGeometry x="430" y="120" width="120" height="60" as="geometry" />
        </mxCell>
        <mxCell id="EIXveCIq_tYeN85T5rE7-3" value="publicKey&lt;br&gt;（Certificate）" style="whiteSpace=wrap;html=1;aspect=fixed;fillColor=#D5E8D4;" vertex="1" parent="1">
          <mxGeometry x="130" y="10" width="80" height="80" as="geometry" />
        </mxCell>
        <mxCell id="EIXveCIq_tYeN85T5rE7-4" value="privateKey" style="whiteSpace=wrap;html=1;aspect=fixed;fillColor=#D5E8D4;" vertex="1" parent="1">
          <mxGeometry x="450" y="10" width="80" height="80" as="geometry" />
        </mxCell>
        <mxCell id="EIXveCIq_tYeN85T5rE7-6" value="Pod" style="rounded=1;whiteSpace=wrap;html=1;" vertex="1" parent="1">
          <mxGeometry x="270" y="330" width="120" height="60" as="geometry" />
        </mxCell>
        <mxCell id="EIXveCIq_tYeN85T5rE7-7" value="" style="endArrow=classic;html=1;rounded=0;exitX=0.5;exitY=1;exitDx=0;exitDy=0;entryX=0.5;entryY=0;entryDx=0;entryDy=0;" edge="1" parent="1" source="EIXveCIq_tYeN85T5rE7-2" target="EIXveCIq_tYeN85T5rE7-6">
          <mxGeometry width="50" height="50" relative="1" as="geometry">
            <mxPoint x="400" y="220" as="sourcePoint" />
            <mxPoint x="450" y="170" as="targetPoint" />
          </mxGeometry>
        </mxCell>
        <mxCell id="EIXveCIq_tYeN85T5rE7-8" value="sign the jwtToken using privateKey" style="text;html=1;align=center;verticalAlign=middle;resizable=0;points=[];autosize=1;strokeColor=none;fillColor=none;" vertex="1" parent="1">
          <mxGeometry x="414" y="240" width="200" height="20" as="geometry" />
        </mxCell>
        <mxCell id="EIXveCIq_tYeN85T5rE7-10" value="Namespace x" style="text;html=1;align=center;verticalAlign=middle;resizable=0;points=[];autosize=1;strokeColor=none;fillColor=none;" vertex="1" parent="1">
          <mxGeometry x="560" y="280" width="90" height="20" as="geometry" />
        </mxCell>
        <mxCell id="EIXveCIq_tYeN85T5rE7-11" value="jwt token" style="rounded=1;whiteSpace=wrap;html=1;" vertex="1" parent="1">
          <mxGeometry x="515" y="480" width="80" height="40" as="geometry" />
        </mxCell>
        <mxCell id="EIXveCIq_tYeN85T5rE7-13" value="&amp;nbsp;Secret&amp;nbsp; (default)" style="text;html=1;align=center;verticalAlign=middle;resizable=0;points=[];autosize=1;strokeColor=none;fillColor=none;" vertex="1" parent="1">
          <mxGeometry x="508.33" y="400" width="100" height="20" as="geometry" />
        </mxCell>
        <mxCell id="EIXveCIq_tYeN85T5rE7-17" value="ServiceAccount(default)" style="text;html=1;align=center;verticalAlign=middle;resizable=0;points=[];autosize=1;strokeColor=none;fillColor=none;" vertex="1" parent="1">
          <mxGeometry x="310" y="500" width="140" height="20" as="geometry" />
        </mxCell>
        <mxCell id="EIXveCIq_tYeN85T5rE7-18" value="" style="endArrow=classic;html=1;rounded=0;exitX=0.5;exitY=0;exitDx=0;exitDy=0;entryX=0.5;entryY=1;entryDx=0;entryDy=0;" edge="1" parent="1" source="EIXveCIq_tYeN85T5rE7-16" target="EIXveCIq_tYeN85T5rE7-6">
          <mxGeometry width="50" height="50" relative="1" as="geometry">
            <mxPoint x="400" y="300" as="sourcePoint" />
            <mxPoint x="450" y="250" as="targetPoint" />
          </mxGeometry>
        </mxCell>
        <mxCell id="EIXveCIq_tYeN85T5rE7-20" value="ca.crt" style="rounded=1;whiteSpace=wrap;html=1;" vertex="1" parent="1">
          <mxGeometry x="515" y="435" width="80" height="40" as="geometry" />
        </mxCell>
        <mxCell id="EIXveCIq_tYeN85T5rE7-21" value="" style="endArrow=classic;html=1;rounded=0;exitX=0;exitY=0.5;exitDx=0;exitDy=0;entryX=1;entryY=0.5;entryDx=0;entryDy=0;" edge="1" parent="1" source="EIXveCIq_tYeN85T5rE7-12" target="EIXveCIq_tYeN85T5rE7-16">
          <mxGeometry width="50" height="50" relative="1" as="geometry">
            <mxPoint x="385" y="430" as="sourcePoint" />
            <mxPoint x="340" y="400" as="targetPoint" />
          </mxGeometry>
        </mxCell>
        <mxCell id="EIXveCIq_tYeN85T5rE7-22" value="ref" style="text;html=1;align=center;verticalAlign=middle;resizable=0;points=[];autosize=1;strokeColor=none;fillColor=none;" vertex="1" parent="1">
          <mxGeometry x="440" y="455" width="30" height="20" as="geometry" />
        </mxCell>
        <mxCell id="EIXveCIq_tYeN85T5rE7-23" value="ref" style="text;html=1;align=center;verticalAlign=middle;resizable=0;points=[];autosize=1;strokeColor=none;fillColor=none;" vertex="1" parent="1">
          <mxGeometry x="350" y="390" width="30" height="20" as="geometry" />
        </mxCell>
        <mxCell id="EIXveCIq_tYeN85T5rE7-24" value="" style="endArrow=classic;html=1;rounded=0;exitX=0.5;exitY=0;exitDx=0;exitDy=0;entryX=0.5;entryY=1;entryDx=0;entryDy=0;" edge="1" parent="1" source="EIXveCIq_tYeN85T5rE7-6" target="EIXveCIq_tYeN85T5rE7-1">
          <mxGeometry width="50" height="50" relative="1" as="geometry">
            <mxPoint x="470" y="360" as="sourcePoint" />
            <mxPoint x="520" y="310" as="targetPoint" />
          </mxGeometry>
        </mxCell>
        <mxCell id="EIXveCIq_tYeN85T5rE7-27" value="" style="endArrow=none;dashed=1;html=1;dashPattern=1 3;strokeWidth=2;rounded=0;entryX=0;entryY=0.5;entryDx=0;entryDy=0;" edge="1" parent="1" target="EIXveCIq_tYeN85T5rE7-4">
          <mxGeometry width="50" height="50" relative="1" as="geometry">
            <mxPoint x="210" y="50" as="sourcePoint" />
            <mxPoint x="260" as="targetPoint" />
          </mxGeometry>
        </mxCell>
        <mxCell id="EIXveCIq_tYeN85T5rE7-28" value="Key Pair" style="text;html=1;align=center;verticalAlign=middle;resizable=0;points=[];autosize=1;strokeColor=none;fillColor=none;" vertex="1" parent="1">
          <mxGeometry x="300" y="20" width="60" height="20" as="geometry" />
        </mxCell>
        <mxCell id="EIXveCIq_tYeN85T5rE7-29" value="Verify the signature using public key" style="text;html=1;align=center;verticalAlign=middle;resizable=0;points=[];autosize=1;strokeColor=none;fillColor=none;" vertex="1" parent="1">
          <mxGeometry x="40" y="240" width="210" height="20" as="geometry" />
        </mxCell>
        <mxCell id="EIXveCIq_tYeN85T5rE7-30" value="" style="endArrow=classic;html=1;rounded=0;exitX=0.5;exitY=0;exitDx=0;exitDy=0;" edge="1" parent="1" source="EIXveCIq_tYeN85T5rE7-1" target="EIXveCIq_tYeN85T5rE7-3">
          <mxGeometry width="50" height="50" relative="1" as="geometry">
            <mxPoint x="450" y="230" as="sourcePoint" />
            <mxPoint x="500" y="180" as="targetPoint" />
          </mxGeometry>
        </mxCell>
        <mxCell id="EIXveCIq_tYeN85T5rE7-31" value="use" style="text;html=1;align=center;verticalAlign=middle;resizable=0;points=[];autosize=1;strokeColor=none;fillColor=none;" vertex="1" parent="1">
          <mxGeometry x="172" y="93" width="30" height="20" as="geometry" />
        </mxCell>
        <mxCell id="EIXveCIq_tYeN85T5rE7-32" value="" style="endArrow=classic;html=1;rounded=0;exitX=0.5;exitY=0;exitDx=0;exitDy=0;" edge="1" parent="1">
          <mxGeometry width="50" height="50" relative="1" as="geometry">
            <mxPoint x="490" y="120" as="sourcePoint" />
            <mxPoint x="490" y="90" as="targetPoint" />
          </mxGeometry>
        </mxCell>
        <mxCell id="EIXveCIq_tYeN85T5rE7-33" value="use" style="text;html=1;align=center;verticalAlign=middle;resizable=0;points=[];autosize=1;strokeColor=none;fillColor=none;" vertex="1" parent="1">
          <mxGeometry x="492" y="93" width="30" height="20" as="geometry" />
        </mxCell>
        <mxCell id="EIXveCIq_tYeN85T5rE7-34" value="" style="shape=image;verticalLabelPosition=bottom;labelBackgroundColor=default;verticalAlign=top;aspect=fixed;imageAspect=0;image=data:image/png,iVBORw0KGgoAAAANSUhEUgAAA5EAAAIvCAIAAABiB8hZAAAgAElEQVR4Aey9D1gkV5nvX8+TfhI2g4abYZw26Ux6Z8ikTTCSSFZGO0pWYlAxjor34mautr+MP/mZ2Yhe4mIGY+9IVsySsVVi8Mq6vTpZ2bWz4YlkHV1WbtIb2dkxSyJ/Gmig+TvNTDM0UEAD1d31e5x3PbdS/Yem6T9V1d9+5kmqT506530/7ynq26feOsWJ+IAACIAACIAACIAACICAsglwyjYP1oEACIAACIAACIAACICACM2KQQACIAACIAACIAACIKB0AtCsSo8Q7AMBEAABEAABEAABEIBmxRgAARAAARAAARAAARBQOgFoVqVHCPaBAAiAAAiAAAiAAAhAs2IMgAAIgAAIgAAIgAAIKJ0ANKvSIwT7QAAEQAAEQAAEQAAEoFkxBkAABEAABEAABEAABJROAJpV6RGCfSAAAiAAAiAAAiAAAtCsGAMgAAIgAAIgAAIgAAJKJwDNqvQIwT4QAAEQAAEQAAEQAAFoVowBEAABEAABEAABEAABpROAZlV6hGAfCIAACIAACIAACIAANCvGAAiAAAiAAAiAAAiAgNIJQLMqPUKwDwRAAARAAARAAARAAJoVYwAEQAAEQAAEQAAEQEDpBKBZlR4h2AcCIAACIAACIAACIADNijEAAiAAAiAAAiAAAiCgdALQrEqPEOwDARAAARAAARAAARCAZsUYAAEQAAEQAAEQAAEQUDoBaFalRwj2gQAIgAAIgAAIgAAIQLNiDIAACIAACIAACIAACCidADSr0iME+0AABEAABEAABEAABKBZMQZAAARAAARAAARAAASUTgCaVekRgn0gAAIgAAIgAAIgAALQrBgDIAACIAACIAACIAACSicAzar0CME+EAABEAABEAABEAABaFaMARAAARAAARAAARAAAaUTgGZVeoRgHwgolkBHR8fRo0fLr3zq6+vdbncKTe3s7Kyvr09hg+fPn7dYLA6HI4Vtpqopn88X2ZTL5bJYLC6XS7rL6XRaLJbm5mZpYXLb1L5F8mloaHA4HIIgbNtgfX19e3v7ttVQAQRAAARSSACaNYUw0RQI5BCB2tpajuOqqqoaGhpqa2uNRmN+fn5vb2+qEFitVqPRmKrWRFGsqanJz88vKipKYZspaaqsrMxut0c21dPTw3FcT08P2+V0OvPz80tLS71eLytMeoPaN5lM9KujvLy8uLiY47iKioptZavRaLRYLEl3jQNBAARAIAkC0KxJQMMhIJDrBNxuN8dxra2tDATP88XFxaWlpaxEURt+vz8vL6+pqYnjuLNnzyrKNo7jEtGsJFjNZjPP8ymxnzSrrOuWlhaO45Q5G50Sr9EICICAeglAs6o3drAcBLJGgOSO0+mUWtDR0XHs2DFW4vP5mpubLRZLfX19X18fK7fZbH19fa2trbW1tXa73Wq1SmcN3W631Wr1+Xw9PT02m40d1dfX19DQQLfFpXfS+/v7qbypqUnaDjuQNlpbW3U6nd/vLykpqa6ulu2lTi0Wi9Vq9Xg8bG+scpfLRZ1arVZpRoTVapV6arfbOzs7RVH0+/3klN1ut1gsdXV1rJrVauU47ujRo1JnyQDpPGsswer3+1taWmRtdnd3NzU1MS9EUXQ6nZHpBFE1ayAQ4DjOarXS4S6Xq6mpyWKxULDY/KvNZiPXPB4PQautrW1sbEyVnpYaj20QAAEQIALQrBgJIAACOybg8/noJnVnZ2cgEIg83uVy6fX64uLihoaG6upqnU7Hpu6MRmNZWVl+fr5er7fZbHl5eVK5Vl9fTykB0tyA9vZ2nU5XUVHR2NhYXFys1+tnZmZEUXQ4HKy8pKREr9fLsj+ZYaWlpSRVbTabTqejw2lvV1eXTqczm80NDQ2lpaX5+fnUSGdnJysvKSkpKCigcurUbDY3NjaSI2ziVjZjWl5eTjfQPR4Px3Fms7mkpMRisRQVFel0OpKtFouFdkUm7zLNGkuwut1ug8FQVFTEILe1tZFC5Tiuu7ubuW82m6U/J6g8qmZ1uVwcx7W0tIiiSGQqKyutVisFkTXCcgOokZKSEoPBYDQaow4GZgY2QAAEQGA3BKBZd0MPx4JA7hLo7u7W6/Ucx+Xl5ZWVlclmHCsqKsrKyti0nNVqzc/P9/v9oigajUa9Xk9zooIgWCyWkpIS4igIgsFgoEk+pll5ns/Pz6+rq6M6PM/r9fr6+nqe5wsKCpjUEwShoqKivLw8MiR9fX0cx3V1dYmi6PP5dDodm0cUBEGv19fU1DADTCbTsWPHIsuLioqOHTtGnUpTOaurq/V6PWm1+Jr16NGjzIX8/HxmuewoZj/Jwaampvz8fI7jWH1WobKysri4mE1t0g8AAltUVHT8+HGqSYpZKmGpnNpvaWnxXPm43e7Ozs7S0tK8vDyabC4tLWVkRFGsr6/Py8ujY2WalWxj4WYWYgMEQAAEUkgAmjWFMNEUCOQWAUEQzp49W1dXV1JSwnGcTqejGVO/389xXFNTE4khj8fjdDpZlqTRaJQqIVJO/f39oih2d3dzHEeToEyzdnZ2chxHFYiv1+sNBAIOh4NmE1kvlIspzRyg+idOnNDr9UxRVVdXGwwG+nr+/HnZlKTX6+V5Pmp5IBCINIZcozQJmfqUzbN2dHSw8VFWVsaEr+woVofIcBxXXV1dV1cny8TleZ7EN3OfpPmZM2dEUSSlS0q6qanJYDCwZtkGa5+TfIxGI4l7qsYEscvlOnHiBMf91yVDplnPnz/PmsUGCIAACKSJADRrmsCiWRDILQIzMzNHjx4lcUniSSKE/muTFK3RaGxsbJTSYSXHjh2rqKigXUyz2u12juOY4mQHkkKN7EWakCqKYiAQKCwszMvLM/7hU1BQwAQ06TbZIZR1wHFcZDkZw2wQRZFmMelJJpn6lGlW6QoAbJcoirKjWONkW3V1tXDlU1JSUlhYyLIaqN9I92kKeWZmhvlYVFQkA05dUPsNDQ09Vz7nz59njVMFr9dbW1trMpl0Oh0BjKVZI0ExL7ABAiAAAqkiAM2aKpJoBwRyiMDx48eZuGRu02ICdrud5BQ9o8P2sg2j0chuzVOh1Wo1GAyUA0DThKIoMs165swZjuOkz1fRVGh7ezvHcWwikLUv2+jo6KAETbvko9frKysrRVEk3caeiKLkAb/fT+XSyV2fz+f3+0mzSqdyKQGU5iZl6pMJUwKSnGZlR/X39+fl5bGFqEiVSuduZY5XVlYePXq0t7eX4zjpg2KsGvkoWzeA7RUEobi42GQy2e32vr6+QCDQ1tYGzcr4YAMEQCDzBKBZM88cPYKA6gk0NzfLlg6lR3aoUBCEwsLC2tpa5mdfX195eTlJw0jNSvKrtrY2Pz+fPcTDNGt/fz+bMqQGKyoqjh49SrO5UtHW3t5eVVXFWqDKlZWVJpOJWUIbDQ0NpOT8fj9LaaBdNTU1tACqTqejR5pYeVlZGSlU6XL6NpuN5TNI1/8iCNJnsJj6FEWRyVmaZ5U2yEwlTSk9qrW1VfpQv8FgYA9FiaLocrnKy8vZErkdHR15eXm1tbVms5m1Kd2Ir1nJU/YTQhTFY8eOQbNKAWIbBEAgwwSgWTMMHN2BgBYI8DxvMplIEtH0ZX19fX5+Ppt8bWlp0el0zc3Nbrfb6XSaTKbi4mJSk5GaVRTFiooKnU7HHhuSzrOKolhVVaXX68+ePUsrKzG5TOUdHR0ej6ejoyM/P1/agiiKpIZlCz+RvGNPNZFWpkZoSSzSwbHKjx49WlBQQPXb29ulnZaWllI+qNPprKqqysvLS0SzFhYWVlRUsHUV2PiI1KyiKFZWVup0OkqfpZnmxsZGglxcXCx9cj8QCFAWRFRBzOaYY82z0oq2VVVV7iufpqamvLw8NrEty2dFbgCLGjZAAATSRwCaNX1s0TIIaJmA3++vq6szGAyUUqnX62XLc7a1tRmNRlpY4OjRo+zmvtlsli5uRYwcDofRaGRzhKIo2mw2NkHI8zwpSI7jioqK2Nwqz/N1dXWkzGgNAVnaK9kQVVFVVVWVlpZSqmhDQwM1YjAYmMITBKG+vp6VM23H8zwr1+v1VquVdepyucrKyjiOy8/Pb2hoqKurowfqZ2ZmZN7V1NSwdQBaWloKCgoiH5Pq7e2VHUUqvLi4mL1ZoL29nSDrdLqqqiqZp8ePH8/Ly6PlGiLHIrUfqZVZzc7OTopvfn6+xWKR2mM2m8l+KpQlwrIWsAECIAACKSQAzZpCmGgKBEAABBRE4OjRo9IlGhRkGUwBARAAgZ0TgGbdOTMcAQIgAALKJtDf30/vPpC9q0zZVsM6EAABEIhHAJo1Hh3sAwEQAAE1EigsLOQ4ji0Bq0YXUmJz+MonJU0psJFgMLixsREMBuPYFg6HBUHY3NwMh8NxqkXuygq6nRoZaTZKtE0AmlXb8YV3IAACuUjA5XJJF+rKQQThcJjneY/H4/V6Q6GQ9ggEg8HFxcWxsbGLFy/G8S4QCExPT09NTa2trcWpJt2VFXRbW1vz8/NTU1MrKytSY9K6LQjC4uKi3++HVk4r5xQ2Ds2aQphoCgRAAARAQBEEgsGgz+cbHBycmJhYX19XhE0pNWJ9fX1iYmJoaGhubi5Ww8FgcGFhYWhoaGxsbHV1NVY1WXlW0K2vr4+Njblcrvn5eZk9afoaCoX8fv/w8PDU1BR7jDJOX1tbWz6f7+LFixsbG3GqYVdaCUCzphUvGgcBEAABEMgCAZJrAwMDY2NjiUzdhcPhQCBw+fLlOPORwWBwZWXF7/fHvx2fAW9DodDi4uLg4ODo6Oji4mKsHgOBgMfjGRwcTFCWUTs7RRer9x2Vr6+vj4+PDw4Ozs7O7ujApCsLgnDx4sWBgYHJycltAxoOh5eWllwu18jIyKVLl5LuFAfukgA06y4B4nAQAAEQAAHFEQiHw4uLiwMDA263e3l5eVv7SMEMDw/PzMzEUjBra2tjY2Pj4+NLS0vbNpjWChsbGzMzMwMDAx6PZ3NzM2pfJLOGhoaGh4elb26LWllauFN00mOT3iZ5PTAwMD09nXQjOzqQshFIs26bPUL5EiNXPnF+JOzIAFROggA0axLQcAgIgAAIgICiCUiFVyLzrFtbWxcuXBgYGJiYmIh185fnedeVT8buX0dFHA6HV1ZWXC7X8PDwxYsXY+Vibm1tzc3NkUeyl8NFbZYV7hQdO3A3G4FAYHJycnBwMJOa1ev1DgwMTE1NbatZRVEMhULrVz6xftLsxn0cmyABaNYEQaEaCIAACICAagiEQqHLly8nnhuwtbVFCmZ8fDxW/uvq6urw8LDL5WIvyGA4wuFwMBiMJR9ZNdlGMBjked7n8y0tLZFsCofDm5ubKysrsWZPRVGUmhonk4Hn+ZGREbJ2R4btFJ3MqeS+rq+vUxpDxnIDGMapqanE+Uhr0tIK0pLkfE/3UaFQaGtrS/l2JsIBmjURSqgDAiAAAiCgJgJS4cXzvCiK4XB4Y2NjdXVVuvBTMBhcXl6+ePHi/Pz8xMTEwMDA8PDw7Ozs/Py8z+dbW1ujo3w+36VLl+bm5gavfMbHx+kQym0NBoOXL1/2eDyXL1+mtaXW19fX1tZiTcgJgrC8vOz1eicmJkhWTkxMkJF0w3pkZGRubi7W5N/q6qrb7aanr2IJEUp1GBwclD59JfVlYWHB7/cvLS35/f7Lly/7rnxWVlbC4XCC6KSjgST72tra0tLS8vLyxsZGVMNCoVAgEFhZWQkEAjLv6JGywcFBeqSMMK6tra2vr8swbm1tLVz5SB+cCoVCa2trFLIEDZNq1mAwGAgECAXP81tbW9JGaJuUHzMmFAotLS15PB7KuxAEwe/3e73e+fl5nuejuk+UAlc+rJ3IjmQloVBodXWVHv/y+/2BQCCy8XA4vLW1tbq6Gmm8IAg+n298fHxhYUEURbLT5/PxPB8KhWhILC8vx2pZZkzWv0KzZj0EMAAEQAAEQCDFBKTCa2VlZXl5eXJy0u12j46O0vpQJBrW1tbGx8fpjv/Q0NDAwMDg4ODQ0BCVzMzMbGxs+Hw++upyuQaufAYHB6lkbGyMLvZ0X3tiYmJ+fn5sbGz0ymd8fPzSpUtScRYKhVZWVjwez8jIyNDQ0ODgIDU4MjJy+fJlURQ3Nzfphn6sRFVBEC5dujQ4OOh2u+PkPFDq7dDQ0OzsLDOAHq4iy4evfEZGRmiDCqempjY3NxNExwJGq26Nj4+Pjo5Sxqfb7Z6ZmZHOAcvqjI6OTk9PSytIl0HY2Njwer0M49TUFFv0gPIihoeHx8fHpWnKm5ubs7Ozw8PD0lUUZJ2OjIxIDWOadXR0dHZ2dnR0lDHxeDyyBbBIobrd7rm5ORo5lEwyODg4OTnJ8/z09PTw8DCNnImJCaltpBQXFhY8Hg+NwNHRUY/Hs7i4yELDYMo26DfM6Ogoi9rY2Nj8/DxT1eFweH19fWZmxu12E3zZqNvY2Jienh4cHJyZmQkEAjMzM3SvgM6ChYUFOpCQLiwsRApimUnZ/QrNml3+6B0EQCAhAkVFRZxGP5WVlQkhQKWdEGDCiykSJhDpwSx6jorSKEk4yv5Lgo+W8GRqVVZnbGxseXmZBCLpXVnN0dFRn89HOiAcDi8vL4+OjpIlNAk6OTlJcoRyZGnKdmRkZHZ2NupUHPVFEiSW4pHqWunjYrTaAElzmSNk/NTUVDAYTBAdRWNzc9Pr9Q4PDzOnaGNoaIg9zUb2DA8PSzul1QxYoi3TrBMTE9PT01Ijpc6SC9IIkhmRj3BtaxjTrPQrRWab2+1mgSPROT8/L013ZgnQLpdrbGwslsGkKUnRSkfg4OAgKWymPiNHN02R0ogaGhqi3zkDAwNssYhwOLy2tubxeKS9DwwM0OIGNOrYBPbExMSFCxdYTfrdJQ2KKhaGg2aNHCcoAQEQUBwBo9GoOJtSZJCGXUsRoWSaYcKLKRISgqSHWE4q5Y+ura0tLy/Pzs6SIFhYWFhfXw8EApQFSDeO6f7syMgIia21tbVAIECzkrROE4meoaGh8fHxCxcu0LTf4OCgx+Ohh7qYSBoaGpqcnFxeXt7c3FxfX5+dnZWuRUBvt4oqZZgYHR0d9fv9sbgwXUsaVFqN+UK3gxcXF2lalxynNhNEJ4oiKWwSVaTO19bW/H6/2+2mZ5so04BWiWJ5FxcvXpycnBwYGHC5XOyFCCSt2Dz30NDQxMTE3Nzc2NjYwMDA+Pg4qVtaO5bSlCmbgrxjymxmZiZBw1g4yLC5ubnl5eXV1dVLly5RlKUr+zKFOjExQanG0sNJgF64cGFpaWl6eloqbWmFB5p/nZ6eXllZWV9fp1l/8oJNIUvDRKksy8vL9GOAUkc2NjZWVlZmZmY8Hg9NsVPjLF9lfn5+bm5uZGSEDKC0bAaWbKDFesfHx2m40oS91+sls5kalhmjnK/QrMqJBSwBARCISUDDwk7DrsUMZ/p3MOFF12aaEBUEgef5qOuA0pxWpBhiltKc1tjYWOQaomySb3h4eH5+fmNjg16XSst/Mh3AqlGOKZt8pcqxJk2ZAaIoSsWoNJtTWkeqa2OtykQPD9GD8CRWaAkCsiFBdOFwmDJr2YNuLN2CpduKokj3pmnyz+fzCYIQDAZXV1c9Hg+tM0XqnEkr0rJzc3MbGxubm5s+n4+1T/OdRFX2qBwjMzs7m6BhTHSysUFYKKOAJr+ZpJbmbJDBTMWSwRcuXNja2iL4JLJXV1dJ05NYpAoUdEEQaNZWmm0sDaI0S4QWa2OjZWtri34psSVjKT+BEn8p2XdwcHBkZIQSWKV3Elwu1+zs7NraGvVOX9fX1wVBWFpaIjuZyzJ7FPIVmlUhgYAZIAAC8QhoWNhp2LV4EU3zvlAotLCwQIKVVCMJMiahZGsqSRfSl07gSc1k697TZB7btbGxMTU1RaulSudHaUUqNpvI1MPQ0JDb7Z6amlpYWIizPgBrnzakYjSRSdbp6elYupYaJJeHrnxmZmaY5QmiI2lLU4zStN3V1VXKv6RsB57n6Qb05OQksycYDF66dIm0nWw6kKaxCQvJMukiu2xR1YmJCZZXQGp+dHR0aGjowoULCRrGhOPk5KTsB4N0kJBY3NzcpAVxmReUQUsDbHx8nHJzmdwfGxvjeZ61I7OW6V1ZOYs4S9t1uVzkEdvFNpjmpmRospP9sBkaGqLVLZgNlK2xubkpHer01J30KGlCMOtLORvQrMqJBSwBARCISUDDwk7DrsUMZ/p3MOFFaaksN5Stxi9b4YipjTjvIJDdgGZOMFkge6PS2toazTheuHCBblgvLCywhFdSe/RAt0wzsZalGzSpSSuYMvEnrcCmIen9WNJMVlk1uvXM8/zo6CibFGR1EkTHNBNTbNQC06y0duzS0hLNREoXCAuHw36/XzqByuZZZfyXl5eleQtsIlOm9tbW1kizer3eRAxjrCiHgflOG0zOejweQs2GDRO4rIRkJUlGNopIs9KPnMgVHqQDJmoope3EetKONSLjz1a6pVXDpNXo54G0cZaZwH53yc4LGZmsf4VmzXoIYAAIgMD2BDQs7DTs2vZxTVsNJrxGR0el6o1JDZm+lD7cI3vom9nIJkqnpqZYId3+ZpNwTBzT3JXb7ZbmEtCCrPPz8x6Ph8Qr6Uu6jUttUsopm/WkQrZ2ldvtlrojNUMURaZr2fNPsgrsK0kZdhOZzdLR4vk0RR0fHSPJhB01TkqdZpeZPGIJElSHTaCyN+uyOWzZCv+kWdm6CmyOMDI3gGnWRAxLQrPSVDozLxAIUAnJU/KLjToqpDnm4eFh2etembPT09NS8iw6UtEsGwmsDks1kY1kFlm6G8DEKFPb7AeDdOkJNm0siybrTiEb0KwKCQTMAAEQiEdAw8JOw67Fi2ia9zFxw1QRdSi9NkvVALuQx3m8SapZpVJD2iabNqNVAujOu2yKMRgMbm5urq2tXbhwweVy0d1wOpCSKWmtA6l5bE3WOGJUqmtjyW6CQHfYybbIBQoSRCf1WmoqzZiydxnQfKqMKtOyTHoyGSfLu1hZWaEJaVoGlb2jS5YJyqa0vV5vIobRtDflJ0TOLLK5SbYrskQqGdk0OfOLflrQi9NkmpW9U5fmX6OeB0yzMqEZWY2JZlkdKX9RFJmd0mQYoir9IcEmp2UT2JH9ZrcEmjW7/NE7CIBAQgQ0LOw07FpCoU1PJanwkuanxkolZDN/MnUltS5SuNDeyAd0aBqPJNHIyAjTW1KlGw6HA4EALVbAbu+S7pTdr09QjCY4ySpdQUn6aDzzNEF0TOUw46kFmthjs8vshbder5e5z0iyWb319fWoz7exw9n7cmXZAtQp06z0qBN7pZl0CViZYWwJAiZMqalQKOT3++kZLPZjgxnMBCIT2VItyH75jIyMLC4uklWEgvnOfvmwxSsYebbBbGOanu2ivA56HRq9bVjKn4ynhbFo8p7ZKf0xwMQ0jUxS8OxxN+n5Iu1XCdvQrEqIAmwAARDYhoCGhZ2GXdsmqOncLX3KhyXtSaWk9MYo6QDKvJROPskMlAoXaQ4A06wjIyPz8/NLS0srKyvz8/P07BHJDlKK9Nokek1UKBTieZ5WfWKzhmyiTnrHmcmOyLWrmIWkcijTIM4TWvQkOxk2PDzs9XrX1tY2NjbYTKF0AnJ8fDwOOnYfnLQXAaF5YlpuiV6LwBJVaTGsjY2NQCBAC4XSYgUk5pjolD0DRImqTAGLoriyskJPuNPaArQCFNFmz2BRbkN8w9gIIcPo8flAIODz+ViaL3uLb2ToyS9aO5ZFQRTF5eVl9lwam/F1u91+v18QhLW1Nbb6LLnPjqV1weirdJJ+enqanjajHznz8/NTU1N+v5+GCi3lNjU1RW/A8vv9tDrYxMQErbAW9ceANOeYemS5MbKEEGaeQjagWRUSCJgBAiAQj4CGhZ2GXYsX0TTvY7OAsnud7NrMUiTJkETmWWPdjWWaldZpp9cRUboq3RemN2TS64hcLhe9i4teiURvw5qammK31zc2Ni5dunT58mVSgUyayAyW8VtfX/d4PNI0A1kFSlRdWloiQUkroQ4PD9Mru8bGxqampiijIHF0tMIUPWLl8Ximp6fHx8fZ+wVoxprsJzfJd1pVgFauZc/+r66u0vuZ2Hwq2c9ubbOsTVLw1CkZT++/JfVGj7slYhh7nIuiNjo6ShGhwNFaUWxylOXIMjOYYdJ5VlEUKYeVpUYsLy/Taq/Dw8Ms4pSVMTw8zKY56Q0IExMT9Ppf6VpXtMrE5JUPeyEWTQCzAUkTq263m+CzUcdyA+jRPeYO8SGJz8Y/Sx2WZldHjqLslkCzZpc/egcBEEiIgIaFnYZdSyi06anE7qdHJoDSRF3ULEPpk+yRdrEnsqW3WaXyglY+Yv+lrABKVCWtzBYNYHXo5UOrq6tMT9Bb6dk8rnSGj+lamW0sRZKtyimrQF/Z4zisd+kGS69MHF0wGGRvEKCV7QcGBkhjuVwu1iBLn2XdRXpNM3+RT5ix3wPsZbbSFxmwBmmDTccmYhhLgWCWs0bolbwsBGx63uVyzc3NUaRIxcq0YOSiUWQJzX3S74SJiQmv10s/bOiFvfTwHMnNqakpGjDspayRLxibmpqinIdwOMzz/MTEhJQDTd+yvGo21ytNgWAz97S2AA0Ploah5CVaoVmjntooBAEQUBYBDQs7DbuWxTFEL7iiNTJlZmxubtIbg6TJjjQjNTs7e/HiRXa9lx1IN75nZmZkyw8xXTU2Nnb58uWFhQWfz7e0tBQIBKS6h9bSX1hYuHDhwtTU1PT09KVLl1ZWVjY3N5lglfXIBDHdXI5VjZbzHBkZmZmZibPgK9lJE370itS5uTmv1zs3Nzd15UMrEuwIHb2YwOfzzc3NzczMzM/Pr6ysBAKBxcXFmZkZylIIh8OCICwvL5Pjs7OzCwsLgUBA6k4oFFpbW1tdXZVmKVDOxsrKyvT0tM/nY7uCweDa2trly5fJfr/fv7y8TDWFsUoAACAASURBVC/NYq9RSMSwzc3NpaWl1dXVtbW1xcXFixcvXrp0iQLH+qKIkAv0ajQqCYVClAEiy/7c2tq6dOnS5OQkW94hFAptbGzwPO/3+3me39zcXF5epilnlsVBP4fY7CzrlCycm5ubnJycmpq6ePGibMAwN2dmZqanp4m/dNTRuzConI0u+vXCflRQOf06kr6SjdVXzgY0q3JiAUtAAARiEtCwsNOwazHDmakdUlXE+qSJTEEQZHtJl8QSrHR4MBjc2tqSCRqmWWkuMBQKBYNBWR06nHW9deUTDAZlNjAj2UY4HN7a2pKlnLK9bIO98TVOg6ypzSsfem+TcOVD9khtjtoOs1+6lxVubW0xj0KhkAwU4aVOQ6GQtAXygl5DxTxiG9SUVIeRlg2FQmQ8tUavE5NW29YwSiFlbwULXvlIITAbom5EDTR1KvOdGUw9Li4u0ow+07v0O4FyamV9kZtxBgzrUcpf2ghVkPoVCoVWV1fpHcWsJg0PeskWK1TaBjSr0iICe0AABKIQ0LCw07BrUQKpxSKpZo11+16LfsOnZAiwZA+W7ZBMK7s+hoRs5C+HXTec3gagWdPLF62DAAikhICGhZ2GXUtJ6JXfCDSr8mOULQtpLpakIU2mzs/P0zNYLDU2W7apsV9oVjVGDTaDQM4R0LCw07BrOTJMpZo1fmpBjgCBm0RgfX19cnJybGxsYmKCMobdbjc9hyddywy4EicAzZo4K9QEARDIGgENCzsNu5a14ZLZjplmnZychGbNLHtF90aLzrLlCNgKALQugTTBVNFuKMk4aFYlRQO2gAAIxCCgYWGnYddiBFNrxaFQaGlpid4XoLoEQa0FQ0n+BINBnucvXrw4Nzc3PT09MzPj9XoXFxe3faJOSU4oyxZoVmXFA9aAAAhEJaBhYadh16KGUpOFUZ9t16SncGpHBOhRJ0EQ6MF/QRAwvbojgLLK0KwyIPgKAiCgRAIaFnYadk2JIwk2gQAIqJYANKtqQwfDQSCXCOxI2IXD4mX/2r/8n5GnWnv+v//1s09a7EcfbK956O++9Njzz/zolf94dWpzM7hbeKGQcHGe/9XPfd8+5X3kM7P/88PTn7p/9v/52MWTf+7/u2cCr50Pb24k2MWOXEuwTVQDARAAAe0RgGbVXkzhEQhokECCwi4UCnvnl39g/80nPv2ju//0qVtLn7jxtq/vKzpZeOjkW245eaDYelvZN99zv83yhWc7X/xdcso1HAxuTk1cfqZlpuYD4/eY3CU3jNzy5mFj3vDN14wcvHb0tr1jd9/suf+dFx75DP+rn4cSUK4JuqbBoMIlEAABENgJAWjWndBCXRAAgSwRSETYBQJbL70yduzzPyk+0qw//LW9Bx+L+q/w0Mkb3vb43X/61CN/8dy4x7cjh0L8Cv/LF2Y+/ZGx0gPDf3zt8IGro/+7+ZpR03+beP875h+v25r2xO8iEdfit4C9IAACIJALBKBZcyHK8BEEVE9gW2G3wm8898Jr5R9pveFtj8uk6u8nWYsaIwtvfvtfHj3W/p+vzSRIJ7i44H+23XPfnSNFb5JL1ZuvGTH+kaxwxJjnvkM/e/wTgcHX4nSxrWtxjsUuEAABEMgdAtCsuRNreAoCKiYQX9itrm12vtj/nvtt+4pOSrXpDW97/OiDf/O3z57rfLH/O20v3fPB70r37j34mP7w16pqfjg47N0WTXBpcanjb8ffd/vv0wAk06ujt+2dsXx06e/bV174R9/pU54/vUO6d/jA1aO3Fsx+9uiG2xWri/iuxToK5SAAAiCQawSgWXMt4vAXBFRJII6wE4Khc69OfeDjz0QK1v9u+dvfDV5Y4Tc2t4ILi6v/8n9GjnzAFilbH/zcT3g+3iNT4a3N1Z5fTH7wTyIF69wX/mzD1R/iV8KbG0Hf/ErXzybed5tctr7t+gtf+mxolY+KPo5rUeujEARAAARykwA0a27GHV6DgMoIxBF207P+Lzd2vvVWeQLr7Uean/v56+Hw//WUX9146ulfyzTr3oOP3VRsfeZHr/zfehFbm6NDFx75zMjBPTIxOl5evPLLF0RJH8GFS75vPiarNnzzNe67DEvPtkc0/PuCOK5FrY9CEAABEMhNAtCsuRl3eA0CKiMQS9htbAj//Kuh28q+GalE31neMuy+KPVzcyvY/dJIZM3CQyffVXHae2lFWplth9ZWl/7BPnanQa5ED1w99cB7NsdHWU1RFMPra8vP/31kzZGD10599J7gwiVpZdqO5VpkTZSAAAiAQC4TgGbN5ejDdxBQDYFYwm72wtJX/7Kr8FCUJQJK7nnyN+cmpB5ubAg/63wtUrPuPfjY/sONP/mH86GQZFb2D0dujo94/9fx4ZuviVSik5V3B/7z3B8q/v7/wZWlxb99OrLm8IGr3Xfol5//qbQybcdyLbImSkAABEAglwlAs+Zy9OE7CKiGQCxh1/e72fd++HtRZajxjr9ssP58bW2TnAyFwjNz/k899HdRKxceOlnz0I+DwVAkkbWXuycinqwiVeq+80bfk4+H1tfoqN8v3To8MP2p+6Nq1pGiN839+acj24/lWmRNlIAACIBALhOAZs3l6MN3EFANgajCTgiGfvmvrgPF1qgydF/RyTve862//NbZf/v3if7BC7/8V9fD9T+7+e1/GbXy3oOP3Vr6BL8qfxIrvLW59I/20VsLosvQg9dOvO/2hdOn1s85A/3/ufLic3MPPzhi+m9RKw8b8ybufXsosC6DHtU1WR18BQEQAAEQgGbFGAABEFABgajCbnVt88c//Y+oiQEkTPcVnbzlnU2Vn2j76J+13/uR1ljqliq/5ZbGcc9CWPJAlSiKoWX/5aefjJoY8F/C9I//aOydN0197H3T//0+z/3vHI0lWK8sjzV2p0GYnZLhjuqarA6+ggAIgAAIQLNiDIAACKiAQFRht+hf+377v8WaN02i/N9/OyVLaQ36Lvr++vHo86aSVVoTrDD69v2B138rwx3VNVkdfAUBEAABEIBmxRgAARBQAYGowm7Rv/b0D51JaNNYhzh7J6Jo1ie/lqAk3baa++37A6/+uwx3VNdkdfAVBEAABEAAmhVjAARAQAUEogo7fnXD/vf/EUuA7rS88NBjvxu88MbUADHov7zw3W9uK0YTrOB+x1s3RgZluKO6JquDryAAAiAAAtCsGAMgAAIqIBBV2G1uBbt+ORj5NoGdqlWqf+Ntj19aWJXls4Y3N5ae/WHk2wQSFKlvqHbzNeNlh4JLizLcUV2T1cFXEAABEAABaFaMARAAARUQiCrswuHwuVenSstbkhOpsqPKq1o3t4JyFuEw/6ufj5UdeoP63Hkm6/CBq0cO7pmu+YAYki+nFdU1uRn4DgIgAAI5TwCaNeeHAACAgBoIxBJ2E5MLn//SP8rUZxJfCw+d/Oa3u2XJrARmY/C12eOf2L1mHX3b9ZefeSoSdizXImuiBARAAARymQA0ay5HH76DgGoIxBJ2/OrGsz/7bfxFrBKRsLe8s2lweF6WGEB0QkuLl39wOv4iVtsrWmPeRPntG25XJPFYrkXWRAkIgAAI5DIBaNZcjj58BwHVEIgl7MJh0TV68VPHf5yIMI1VZ1/Ryb+w/nxLiEgMuIInHAqtv9ob6+1W26vVK4kEo2+73vfk18KCEEk8lmuRNVECAiAAArlMAJo1l6MP30FANQTiCLu19c3nX/zdO5PNai089Nj7P/r06NilOCyCy37/37cnndU6cih/+s8qNyfcUbuI41rU+igEARAAgdwkAM2am3GH1yCgGgJOp/PMmTPxhZ1vYdX2zEu3lX0z1kxqrPLCQ4+9q+J01y/l609F0hFmpy9962vuOw0JTqyyaiMH90xWHVntORvZJpUw12w2W19fX6xqKAcBEACBHCcAzZrjAwDug4CiCTidTr1e73Q6mbCLam4oFJ69sPTNb3ff8Z5vxZKnkeX7ik6+90Pf/elzr25FLhcQ2U0otDk+eqnpL8buvpnp0W03Rg7lT370nuUX/jFqVgB1wlxzOByFhYVOpzOyc5SAAAiAAAhAs2IMgAAIKJQAE6yiKDJhF8vWUCh8YX75ye/+q+H2r0fK08iSwkMnD5c+8XzX76KsbxWjj3AwuDU5frHpL0YOX7etWv19BWPe+D0m/pcvhDc3YzT5+2Kpa06ns7CwsLOzM0597AIBEACB3CQAzZqbcYfXIKACAg6Hg6k3qbCLZXo4HH59cC7BqdZ9RSfLq1qjLm4Vq/3fl4fDa85/TXCqldJYIxdklbUvc62vrw9TrTJE+AoCIAACoihCs2IYgAAIqICATNjFsnj2gv+rp7ru//gzd//p6ci5VSrZf0vjez/03Y/U/PCp1p6oi1vFapzKN8eG5x/788kHzBPvORxrtnXkljd77i+dfvCDi3/zvfityeZZt62MCiAAAiCQswSgWXM29HAcBBRKwOVytbW1yYxLULNuCSHP1OVf/MuQtflsLM16oNja/uN/f+mVsUs+XtZLIl9DG4HN8dGVf35+/uSfx9Ks7tID/p/8YK33peBl37ZtxnKtqamprq5u28NRAQRAAARyhAA0a44EGm6CgDoIuFwug8HgcDhk5sYSdrJq9HV9feu5F16PpVkP3fmN/sELUQ9MvDC0srRofzqWZp1479s2R7Zfi4C6i+Wa3+83m80Wi0WItqpr4qaiJgiAAAhogwA0qzbiCC9AQAsEYgnWnd5Aj6NZb3jb41U1/3tyenGXvGJq1puvcd+2d/ahj2/NTSXYRSzNKooiz/NVVVW1tbUJNoVqIAACIKBhAtCsGg4uXAMBlRFwOp2RM6zkQxxhF+lkLM1quP3rXzr5/Nlu1+Zm9FdeRTYVqySWZnW/460XH69bfelX4c2NWMfKyuO7JgiCx+ORHYKvIAACIJCDBKBZczDocBkE1EcgvrCT+RNLs95yV1OPM/rLqGQtbPs1lmYdv8e0/u8vb3u4tEKCrgmC4PV6pQdiGwRAAARyigA0a06FG86CgBIJuN1uq9Ua37IEhR01Ekuz3njb179Q/zPX6Hz8vhLZG0uzjha/Zb7xkc2xkUQaoToJutbV1WUymdzu1GjuxM1DTRAAARBQCAFoVoUEAmaAQI4S8Hq9JpPJZrPF9z9BYUeNxNKsew8+drDklK3tpWAwFL+7bffG0qzDN18z9id/7Lc/Ew4mmn6QuGutra0Gg8Hlcm1rHiqAAAiAgPYIQLNqL6bwCARUQyBBwZqqZ7D0h7/2wU/+4J+6ficIiQrKWChjadaRw9fNHPsQ/8sXxKAQ61hZeeKaVRRFh8NRVlYmawFfQQAEQCAXCECz5kKU4SMIKJRA1KVYo9q6I2EXa571xtu+/vCjDs/U5R2//irCpliadbT4LRe/9sWtmcltX3/FmtyRa6IoYukrhg4bIAACOUUAmjWnwg1nQUCtBHYk7GJp1n1FJ01/8ld/YX1hYXFtlyBiadbhP/6j8SNFl77VGPRfTrCLHbnG2uR5/uzZs+wrNkAABEBA8wSgWTUfYjgIAooj4PV66+vrd2TWjoRdLM269+Bj+sNfe9+Hvzvu2f71VPHNi6lZD1w9UvSm6f/xga3pRBeo2pFrzCq3263X67fNA2b1sQECIAACaicAzar2CMJ+EFAZAcph3elbSXck7GJp1v23NL7/o9//ccf5tbXNXVKLpVlHbnnzdPX7l5//+9B6olO5O3JNajaRbGhokBZiGwRAAAS0SgCaVauRhV8goEQCPM+XlpbuVLCm6hmsG2/7+hcb/mn2wlI4vFs4sTSr++37L52qF+YviAn3kbRmFUXR6/XW1dUFAoHd+oPjQQAEQEDxBKBZFR8iGAgCGiLg9Xqbm5uTcGhHwi7WPOu+opPFR5qfbv+3rbStGzD8x3808b7bl579YVhIy7oBSaDDISAAAiCgDQLQrNqII7wAAY0T2JFm3dgQzna7bi19ovDQyb0HH2P/9hWdvOt9f2175qUUaNZVfsnxE/c73jp88zXDB65m/0YO7pl4/zv89qfTtNZVrDD7fD6LxcLzfKwKKAcBEAABtROAZlV7BGE/CKiAAM/zu7yFvSPNGgyGJqcXv/HXv/zAx77PlOtbbmksLX/qez94WRB2+0IBURTDgrAxMnip6SuTVUeYch05uMdz353+n7SFha3Eo7Ij12I1KwjCiRMnysrK8H7XWIhQDgIgoHYC0KxqjyDsBwGlE+B53mw2J5HDKnUsCWG3tRX83cDcFeX6jOlP/qr03qe+3/5vKRGszLBwYH39t70Xv/Ho5IfL3HcZJj5wl//M/96RYN1pqi7rOupGY2OjyWTy+Xa7KkLUxlEIAiAAAtklAM2aXf7oHQQ0ToAEq8Vi2aWfSWhW6lEQgv2DF578zr+2/e0rwq5f2RrVi/BGIPDquYVvf8P/078JJ/z6K9ZU0q6xFqQbXV1deOmAFAi2QQAENEMAmlUzoYQjIKBEAjzPW63W3auo1Ao7RZFKk2u7Z64oSjAGBEAABKBZMQZAAARUQCBNwk4JnqfDNUEQSkpKuru7leAgbAABEACBlBCAZk0JRjQCAiDwBgKCINTX16cwsTIdwu4NFmfvS5pcczqdhYWFDocje56hZxAAARBIJQFo1lTSRFsgAAKiKAqCUH3lk8Lb02kSdkqIV/pcc7lcBoPB6XQqwU3YAAIgAAK7JADNukuAOBwEQOANBNIhWFP7cP0bzFXAl/RpVnpRlgJchAkgAAIgkAIC0KwpgIgmQAAEGIFAIGCz2VI4w0otp1XYMeOzspEZ19xud1a8Q6cgAAIgkCoC0KypIol2QAAE0kggM8IujQ7EbjozrlVWVlZXV6f8t0Rst7AHBEAABFJMAJo1xUDRHAjkLAGr1Zq+ybzMCLusxC4zrgUCgerq6qqqKrzfNStRRqcgAAK7JwDNunuGaAEEQECsq6szm83p00OZEXZZCWTGXBMEwWKxdHR0ZMVNdAoCIAACuyQAzbpLgDgcBEAg7YIVz2BhkIEACIAACECzYgyAAAjsioAgCFarNX0zrGRcxiYjd8UiqYOz4lpnZ6fL5UrKXhwEAiAAAtkhAM2aHe7oFQRAYEcEsiLsdmRh0pWz4prdbjcYDH19fUmbjQNBAARAIMMEoFkzDBzdgYB2CFit1v7+/sz4o9frOY1+ysrKMsNQ1ovD4SgsLMQbB2RY8BUEQECxBKBZFRsaGAYCiibQ2NhoMpm8Xq+irYRxcQk4nU683DUuIewEARBQEAFoVgUFA6aAgFoI2Gw2CFa1BAt2ggAIgIA2CECzaiOO8AIEMkqgubkZM6wZJZ7mzux2u81mS3MnaB4EQAAEdkUAmnVX+HAwCIAACGiAgNfrNZlMdXV1GvAFLoAACGiVADSrViMLv0Ag9QRaW1t7e3tT3y5aVAABv99vNptPnDihAFtgAgiAAAhEIQDNGgUKikAABCIJ2Gw2o9GIlIBIMpop4Xkev0k0E004AgLaIwDNqr2YwiMQSD0Bm82m1+uxCn3qySq1xUAgoFTTYBcIgECOEoBmzdHAw20Q2BGBtrY2CNYdEVN15c7OzpKSEsypqzqIMB4EtEcAmlV7MYVHIAACILBbAk1NTSaTye1277YhHA8CIAACKSIAzZoikGgGBLRIwOFwdHZ2atEz+LQ9gdbW1tLS0u3roQYIgAAIZIQANGtGMKMTEFAhAYfDYTAYkBKgwtClzGS/35+yttAQCIAACOyOADTr7vjhaBDQKAEIVo0GNhm3BEFwOp3JHIljQAAEQCB1BKBZU8cSLYGAhgg4HA4se6SheO7Klf7+foPB0NHRsatWcDAIgAAI7I4ANOvu+OFoEAABEMgBAi6XS6/X4/2uORBquAgCyiUAzarc2MAyEMg8AafT2dbWlvl+0aPyCXi93oqKCqzbqvxIwUIQ0CoBaFatRhZ+gcCOCTidTr1ej8zFHYPDASAAAiAAAuknAM2afsboAQTUQACCVQ1RUoSNgUDAarUKgqAIa2AECIBAzhCAZs2ZUMNREIhLwHnlE7cKdoLA7wkIglBdXV1eXs7zPIiAAAiAQMYIQLNmDDU6AgEQAAGNEBAE4cSJE2VlZXi/q0YiCjdAQA0EoFnVECXYCAJpI9Db29vY2Ji25tGwlgm0tLTgpQNaDjB8AwGFEYBmVVhAYA4IZJCAy+UyGAwOhyODfaIrEAABEAABEEiGADRrMtRwDAhogAAEqwaCqBAXKisrsdyEQmIBM0BAwwSgWTUcXLgGAvEIuFyuzs7OeDWwDwQSI9DV1aXX67u7uxOrjlogAAIgkAwBaNZkqOEYEAABEAABKQGn01lYWNjT0yMtxDYIgAAIpJAANGsKYaIpEFABAZfLdeLECRUYChPVRsDtdmP1K7UFDfaCgJoIQLOqKVqwFQR2SYDeGt/a2rrLdnA4CMQhgAWw4sDBLhAAgaQJQLMmjQ4HgoDKCHi9XoPBYLPZVGY3zFUbgerq6rq6OrVZDXtBAASUTgCaVekRgn0gkCoCbrfbbrenqjW0AwKxCPA8bzabq6ur8X7XWIhQDgIgkAQBaNYkoOEQEAABEACBeAQCgUB1dTUm9eMxwj4QAIEdEoBm3SEwVAcBtRHwer0WiwUzXmqLm+rtFa58VO8GHAABEFAMAWhWxYQChoBAGgh4vV6TyYTprjSgRZOJEujr68NTWYnCQj0QAIHYBKBZY7PBHhBQOQESrFarVeV+wHx1E2hrazMajS6XS91uwHoQAIFsE4BmzXYE0D8IpI2A1+ttbm5OW/NoGAQSJWC32w0Gw/nz5xM9APVAAARAIIIANGsEEhSAAAiAAAikmoDD4WhsbEx1q2gPBEAghwhAs+ZQsOFqjhDgeb6uri4QCOSIv3ATBEAABEAgFwhAs+ZClOFjDhGgpTGxonsOhVxtrvb09LS3t6vNatgLAiCQfQLQrNmPASwAgVQRgGBNFUm0kz4CLperqKiopaUlfV2gZRAAAU0SgGbVZFjhVI4S4Hm+tbU1R52H2+ohQCta4G6AeiIGS0FAEQSgWRURBhgBAiAAAjlFwO/3d3R05JTLcBYEQGCXBKBZdwkQh4NA9gkIglBXV+fz+bJvCiwAgZ0TwEvads4MR4BALhKAZs3FqMNnLREQBKH6ygcXfi2FNXd86e3tLS8v53k+d1yGpyAAAskRgGZNjhuOAgFFEIBgVUQYYMTuCNTV1RUXF+P9rrujiKNBQPsEoFm1H2N4qGECgiDYbDbMsGo4xDniWlNTU3FxMUZyjoQbboJAcgSgWZPjhqNAAARAAARSScDtdqeyObQFAiCgOQLQrJoLKRzKAQKCINTW1uIanwOhzkUXkSSQi1GHzyCQAAFo1gQgoQoIKIzAsWPHzGYzHltRWFhgTgoIeL1evV7f2dmZgrbQBAiAgLYIQLNqK57wJgcI1NXVQbDmQJxz10Wn02kwGLB6a+6OAHgOAjEIQLPGAINiEFAqgdbWVsywKjU4sCs1BOj9rkgSSA1NtAICWiEAzaqVSMIPEAABEAABEAABENAuAWhW7cYWnmmLQENDw/nz57XlE7wBge0JdHR0YA2s7TGhBgjkAAFo1hwIMlxUP4G6urrS0lKkBKg/kvBgZwQCgUB5eXl1dTVk687AoTYIaJEANKsWowqftEWgrq7OZDIht09bUYU3iRKgl73h/a6J8kI9ENAuAWhW7cYWnmmFgN1uh2DVSjDhRzIEBEFobGzEgsTJsMMxIKAhAtCsGgomXAEBEAABEAABEAABjRKAZtVoYOGW+gnYbLauri71+wEPQCCVBGpra10uVypbRFsgAAIqIQDNqpJAwcwcI2Cz2ZDDmmMxh7sJEejo6DAYDE6nM6HaqAQCIKAhAtCsGgomXNEKAQhWrUQSfqSFQFdXl16vh2xNC1w0CgIKJgDNquDgwLRcJdDZ2enxeLTkfUdHR3V1dXl5eUVFRX19fWq96+zsrK+vTyGu3t5ei8XicDhS2GaqmvL5fLKmnE6nJcanublZVpl9bW5ubm9vZ19Vt9Hb24sHE1UXNRgMArskAM26S4A4HARAYBsCx48f5ziuqqqqvr7++PHjer0+Pz+/t7d3m8MS3m21Wo1GY8LVt69YU1OTl5dnMpm2r5rZGmVlZXa7Xdbn2bNny//wMRqNHMf94Vt5XV2drDL7Wl5ebrFY2Ff1bmDdVvXGDpaDwE4JQLPulBjqg0C6CDgcjra2tnS1nqV2XS4Xx3Gtra2sf57nTSZTWVkZK1HUhs/ny8vLa2ho4Diup6dHUbZxHBepWaUWWq1Wjkvor7pmNKvFYmlqapJCwDYIgIBWCST0102rzsMvEFAOAYfDYTAYtPdAdE9PD8dxsrfO2u32mpoaBt/n8zU3N1ssloaGhv7+flbucDjcbndra2ttba3D4bDb7X6/n+31eDx2u53n+b6+Pul9/L6+voaGBovF0tzcLL2T3t/fH7WcNUgbra2teXl5PM8XFxdXV1fL9rrdbqvVarFYrFar9N50rHKXy9XY2Ej1pRkRdrtdutro2bNnKTuT53ly0263Hz9+vL6+ngGx2+0cxx0/flzqrMy8SM3q8/lsNpvFYqmrq5PObUs1q9frtdvtfX191JrX62XhkBpJ4eju7j5x4kRtbe3Zs2dlvWflq9frLSkpiTOjnBWr0CkIgEA6CECzpoMq2gSBnRHQqmAVRdHn8+Xn55eWlp49ezYQCERycblcer2+uLi4oaGhqqpKp9MxTWY0GsvKyvLz8/V6vc1my8vLs9lsrIW6urqioiJRFKW5AW1tbTqdrqKioqGhoaioSK/Xk2x1OBxU3tjYWFJSotfrY/08KCkpIana0tKi0+mkwrSzs1On05nN5oaGhuLi4oKCApJ0snK9Xk/l1KnZbKZO8/Pz2WNDshlTpiA9Hg/HcWazuaSkxGKxFBUV6XQ6kq0Wi4V2xUnelWlWYltUVERsOY5jAFmPXq/XZDKZMtmqEwAAIABJREFUzWZ6M3BfX19hYWFJSUlDQ0NlZaVOp+vs7CTmRqPRbDbr9XqLxWI2mzmOU8htAZ7nzWaz1WplYwMbIAACmiQAzarJsMIplRHo7OyMJaFU5kk0c+kpb47j8vLyysvLm5qapLN35eXlZWVlLCvRarUWFBSQfjIajXq9nlSjIAg1NTUso0AQhMLCQropzDQrz/N5eXlM0vn9/sLCwsbGRr/fX1BQwMoFQTCbzRUVFZHGnj9/nuM4WhbX6/XqdDr2GJMgCHq9nk0PBwKBoqKiY8eOycp5ni8qKjp+/Ljf78/Pz2c5o4IgVFVV6fV68jS+ZmXzu9RIY2MjmSo7KtJ+mWY1m83FxcUEUxTFpqYmpoBJs8oEqyiKJSUl5eXlLBwNDQ0FBQX0Y8N45cNaKysrKy8vj7QhKyWBQIAZlhUD0CkIgEAGCECzZgAyugCBXCcQCAS6urrq6upKSko4jtPpdDTh5/P5OI5ramry/OFDuQQ0t2c0Go8dO8bYnT17luM40rtdXV0cx83MzEjnWTs7OzmOk6r/mZmZQCDgcDg4juvu7v5DJ57m5maO46SZBtTLiRMnmKwURbGqqspoNJKAIzkrzXD1er08z/f29nIcxyZQRVGkcupUqs7JNbpBL1OfbNaT5lnZTLMoisXFxUz4yo5iZNiGVLMSW+niAIFAIC8vj1R4eXl5ZWWlyWQqKipiam9mZobmYhkoYt7d3S2KotFolN6Ct1gsqX30jXmxmw2v1xsZ1t00iGNBAASUQwCaVTmxgCU5R8DhcOTgDc2ZmRm66ex2u0nwcREfetLIaDTK+BgMBpp0rKmpqayspBHD5lkp4zNyGDU1NUX08PsCaYKpKIqBQKCgoCAvL48mFI1GY0FBAZt27ejoiDxEFMUzZ85ELW9vb5c9DkV6lFyTqU+ZZpUqY7ZLFEXZUZGeSjVrf39/5GNkRqPx+PHjoiiWl5dzHEe5ByzPlVR1JKuo4VCmZm1ubsbLOCIHBkpAQBsEoFm1EUd4oT4CTqczF9ZFt1gskXfhaTEBu91OG+3t7WxijzZo5i9SszY2NtK8YF5eXkdHB0Vdplmlz135fD6e51tbW2n+VdYLuwNO7ZAqbWlpsUs+hYWFVVVVoijSjCN7IkoURb/fz/M8zfhKJ3epnAS0dM6PRCQ9uiRTn0yYkq5NiWalplg2KvlYWFjY0NBAmtVsNgcCgbKyMpPJRHf/6SfEmTNnZKCihkOZmlUURZvNZjQapRFR318HWAwCIBCNADRrNCooA4E0E8gRwSqKIt2Fl4owURTpJr7T6RQEoaCgoLa2lvHu6+srLy8naRipWUmH1dfXsyRLaW4AiULpjfWKiorq6mq6rS9Vb+3t7VVVVTLNWlFRUVxczCyhjfr6ep1O5/F4KL1V+tQR5dd6vV7Z00jV1dVms5mMYcKaULCHuqTrf9H8LiUApFCziqJYWFgoZUuSlPgwldzf36/T6SjZl5IHWOKvKIpOp7OiooL0nywcitWsoija7fYTJ07IQomvIAACaicAzar2CMJ+VRJwXvmo0vQdGu33+00mU15e3okTJ+x2e0dHR0NDQ35+Ppt8bW5u1ul0LS0tbrfb6XSaTKbi4mL20I8sN4AmCHU6nVSKsXlWURQrKyv1ev3Zs2c9Ho/VatXpdJRpSuUOh8Pj8XR0dOTn50tbEEWRxGLkSp8kPWlu8vjx44WFhdRIa2urTqcjSUrl9PYyKiddSA9ddXR00LJc0k5LSkqKiop6enp6e3urqqrY01rxNWt+fn5lZaVUlMuiIc0NEEWRlj5obm52u93d3d3ElpQ606wk+nU6HWUIELSWlhaPx9PT02MymUpKSugQFWlWGRZ8BQEQ0AYBaFZtxBFegIByCfh8Pnq2iRIl9Xp9Y2OjdN2rlpYWg8FACwscPXqULS9lNpvZ2kzMvY6ODqPRyFIw6V6w2WymCjzPHz9+PD8/n5I1mbzjeb62tpbKaQ0B2SRra2ur0Wikh7pYX7RRWVlJ6xUIgkBTvBzHGQwG9ngTlVPjBoOBLfvP8/yJEyeoXK/XW61W1qnL5SotLeU4Lj8/v6Ghoa6ujmY3Z2ZmZN7V1NSwic+mpqb8/HyDwSCzkH2l2+LsK8EhtiSLWeKEtNlAIGA2mysrK8m85uZmFo7q6upY4aivr2fYpT0qatvlcknn1xVlG4wBARDYKQFo1p0SQ30QSJ6A0+mMnDhMvjkVHimVqio0HyarjEBfX5/014XKrIe5IAACbyQAzfpGHvgGAmkj4HQ6CwoKMOuTNsBoGASiEHC5XEVFRS0tLVH2oQgEQEBVBKBZVRUuGKtaAi6Xq6CggN2qVq0fMBwE1EfA6/VGZiqrzw1YDAI5TwCaNeeHAABkhADy6jKCGZ2AAAiAAAholgA0q2ZDC8dAAARAAASkBPr7+y0WC3vvl3QXtkEABJRPAJpV+TGChSom4HK5sE6kiuMH07VFQBCEmpoas9kM2aqtwMKbXCEAzZorkYafmSfgcrkMBgNyWDNPHj2CQBwCdXV1bA3gONWwCwRAQGkEoFmVFhHYoxECLpdLr9ezpTo14hXcAAFNEOju7taEH3ACBHKLADRrbsUb3maMgNfrhWDNGG10BALJEcCCwclxw1EgkBUC0KxZwY5OQQAEQAAEskzA5/MVFhbS232zbAq6BwEQSIAANGsCkFAFBBIm4PV6LRYLe0VnwsehIgiAQBYI9PT06PV6vOkjC+jRJQjsnAA0686Z4QgQiEHA6/WaTCabzRZjP4pBAAQUR8DpdBoMhpmZGcVZBoNAAATeSACa9Y088A0EkiUAwZosORwHAlkm4Pf7s2wBugcBEEiAADRrApBQBQQSIMDzfEdHRwIVUQUEQEChBHp6ehRqGcwCARAQRWhWjAIQAAHVEPD7/d/7Xmvlhz78xwcP7dmTz+GTLIHrriu45fCtH/9EdXt7O56dpxNAEITy8vLa2lrko6vmLwIMzTEC0Kw5FnC4m2oCPM8fO3YM9xZTzTVKe99/5pnr9xZ++OM1LW1nXnj59Rd/M/h8z6tPfKf93vur9u7b/+32jr5pHv8SJPDywCzRu++DH9m/Hw8h/dd443m+vLy8uroasjXKGYgiEMg2AWjWbEcA/auZAM/zZrO5rq5OzU6ow/YTj3zRdPsdL7z8elRN9mzXSzcYDjxq/VbUvSiMT+DZrpduOnAznh2kM4He74oFsNTxdwFW5hgBaNYcCzjcTR0BCNbUsdympadOf/v2d9z1ims+jvbqfnXsBsMBzLbGQRRnV/erYzcduBlLPm0zELEbBEAgqwSgWbOKH52rmYAgCHjTVQYC6PV633zddWfPDceRXLTr2a6X9u7bf87t27YmKkQSeLbrpf379chtlQ7p1tZWrIElBYJtEMguAWjW7PJH7yAAAtsQ+MpXTz740MORGitqyb33V339yaej7kLhtgTu++BH2tvbt4lHLu222Wx6vd7lcuWS0/AVBJRLAJpVubGBZcokwPN8dXW1x+NRpnnas+qOkrt+9NyvttVbVOGJ77RXfOhogpVRTUbgr77b/olPVGtvCO3Go46ODoPBgPTW3TDEsSCQKgLQrKkiiXZygoAgCGazGY8VZzLY11yTl/jt/ud7XjUeOiyTYviaIIHne149fOutmQyuKvrq6uqCZlVFpGCk5glAs2o+xHAwZQQEQai+8sE6OCljmkBDb3rzdVLJ9dsJ/yNfPXXn3WXXXrsn6uKkNxgOSOtjO3ECZ88NH7j55gRigiogAAIgkAUC0KxZgI4u1UvAbrdDsGY4fFINes7tu+2OO++5977Hn2z9G8cvn+16Wfbv9A9/ajhwc+IqDTWlBF54+fWDhw5lOL4q6q6xsRErgqkoXjBVewSgWbUXU3gEApoiINWsn/3Cl+69v0qmU6Vfv/jVb9xTXiHVYdhOnEBL25kPfujDmho9KXXG7XabTKampqaUtorGQAAEEiUAzZooKdTLWQKCIFgslv7+/pwlkF3HpZrVcODm0z/8qVSkyrbN936g4dRfJ67SUFNKoOrjNd9rbc1uuBXeu9frLSkpsVqtCrcT5oGAJglAs2oyrHAqZQQoh/Xo0aNICUgZ0x02JNWsV111lUykSr+e/uFPryv4by8PzEp1GLYTJPDCy69fv7cQbyHednjyPO92u7ethgogAAIpJwDNmnKkaFA7BEiwms1mnue145XaPJFq1n1v2f89+3NSncq2/8bxS+OhW04+cTpBiYZqUgKvuOZNt9/x/WeeUdvoyKa9gUAAfxmyGQD0nXsEoFlzL+bweCcEWltbcVnaCbDU15Vq1o//jwc//PEaplPZxvfszx28xfRnlv9XqsOwnSCBs+eGb3/HXSce+WLqg6fpFtvb281mM2amNR1kOKcsAtCsyooHrAEBEJARkGrWlwdmbrjxpg9/vIZmW+3/1P34k62VH/3knvw3Pfq1JxKUaKhGBM65fT967lcPPvTwm6+77qnT35Zhx9dECNTV1ZlMJq/Xm0hl1AEBENglAWjWXQLE4dok0NDQgFXEFRJaqWbtm+Zf7p8+Wv2pvfveEnVxVhQmTuCaa/LeXnLXow2PQXLtZqjbbLbKysrdtIBjQQAEEiQAzZogKFTLIQJ1dXXIYVVOvGWaFbOkiRO48Sa8ICATAzkQCGSiG/QBAjlPAJo154cAALyRAATrG3lk/xs0a+IiVVYTmjWTw5fn+fPnz2eyR/QFArlGAJo11yIOf7chYLfb8dDVNowyuxuaVaZEE/8KzZrJoXr+/PnCwkKHw5HJTtEXCOQUAWjWnAo3nAUB9RGAZk1cpMpqQrNmeLj39fUZDIb29vYM94vuQCBHCECz5kig4eY2BGw2W1dX1zaVsDsbBKBZZUo08a/QrJkfsC6X69ixY3gFSebJo8dcIADNmgtRho/bELDZbFiwZhtG2dsNzZq4SJXVhGbN3rBFzyAAAqknAM2aeqZoUV0EIFgVHi9oVpkSTfwrNGsWx7bX621oaMCEaxZDgK61RwCaVXsxhUc7I9DV1YX1KXeGLLO1oVkTF6mymtCsmR2qb+iN5/mqqqrq6mo80/kGLvgCArsgAM26C3g4FARAIP0EoFllSjTxr9Cs6R+e8XoQBKGmpgaLPcdjhH0gsBMC0Kw7oYW6GiJgs9na2to05JBmXYFmTVykympCsyrhrLDb7cgQUEIgYIMGCECzaiCIcGHHBBwOh8FgcLlcOz4SB2ScADSrTIkm/hWaNeOjFR2CAAikkQA0axrhomllEoBgVWZcYlkFzZq4SJXVhGaNNagyX87zfGlpKX4nZ548etQSgXRpVpPJxOGjaQLvu/f9Kj0TnE4nrhwqih00q0yJJv4VmlVR49zhcBQUFDidTkVZtUtjbjl8q6YvdHCOq6io2OUgSeHh6dKsRqMx8T+sqKlGArgcpvA8RFNxCECzJv33ASdpnHGVlV09PT16vb6/vz8rvaej0xtvujnp8YkDVUHAaDSmY+Qk1yY0K6+KQaNAI1V3OXQ4HE1NTcmdJzgqiwSgWZM+/VV3kmZxmGWsa7fbnbG+MtARNGvSp6daDoRmhUzUAgF1XQ7prlxvb28G/oiji9QSgGZN+tqmrpM0tcNG+a1pY1loaNakT0+1HAjNqgXFppbRlj47VXQ57O7u1l4amfIvyamyEJo16bNYRSdpqkaLitopLS1taGhQkcFRTYVmTfr0VMuB0KzQrFogoKLLocvl0thzD1EvHlothGZN+tqmopNUq6M3jl9er9dsNtfW1qp69VZo1qRPT7UcCM2qBcWmltGWPjtxOYxzNcKuFBKAZk36LMZJmsJxmI6meJ4vLy/v6upKR+OZaROaNenTUy0HQrNCs2qBgPIvh06n88SJE5n5w41e0kcAmjXpa5vyT9L0DRu0nBkC0KxJn55qORCaVQuKTS2jLX12Kvxy6HQ69Xo9UgIyc91Kay+70awtbWciD3/U+q077z6SklPjzruPtLSdSUlT6WhE4SdpWoeN6ho/e/asGp/KgmZNx5mrqDahWaFZtUBAyZfD3t7egoKCnp4e1V23YHAkgUjRmfgf9FOn2ziOk9Wv/dJju2lT2toNhgOnTrdJSxS1reSTNDLQOV5itVpNJtPMzIy6OECzKuqUT4cx0KxaUGzpGBnqalPJl0Ov16vqFDF1XbTSbe1u9GWCmvXsueEXfzP42wm/7Byk8p7XJiPLz54b7pvmZZr1Fdf8i78ZfHlgVlb/txP+qO3LqqX8q5JP0nQPGzW2b7PZ9Hq9ut7SB82a8tNWaQ1Cs0KzaoEALodqvCiq0ea0atbne1697Y67rt2zZ+++/Xv37f+u3UEXjGe7XjIeOvymN1+3/603chz3wCcfJEXb/erYu8z3Xn1NXsH1e99dft/effvZPOvnHvnK1dfk3WA4cPU1eR/71Geo/qnTbW+/6+7b7riL47hPf/6LGb4a4SRV3YDv6Ojo7OxUkdnQrBk+qTPfHTSrFhRb5seN0npU4OXQ5XLV1NSo6M89TE2EwO416wOffFD679bb76A2fzvhNx46XPGho+fcvr5p/tTptquvyXvxN4N907zx0GGmU3/w059zHPfjzl/3TfMVHzp62x130Uzqw48+znEcadaGbzxVcP3en/3Lub5p/uy54ZuMBz/3yFeoTY7jPvfIV57veZVazuSJrMCTNJGIo46KCECzZvKMzkpf0KzQrFogoLTLocvlMhgMDodDRX/uYWoiBNKnWX/4D//McVz3q2PsSmA8dPjLjU/0TfM/7vw1u8Xf/eoYadNzbt9VOp30oSs2z1p0622f/cKXWTsN33hq/1tvZDo4MuuA1UzrhtJO0kTCjTpEoK2tTRV/zaBZ03oKK6FxaFYtKDYljKTs2qCoyyEEq4av9LvXrLIzhT2DRdmu3Bs/D3zywb5p/sXfDD740MN33n1k7779BdfvJc364m8GOY6jyVRqs/TIPTTPepVO98Zmfv+NNOtu7JdZvtOvijpJNTxE0+Ea/U2z2WzpaDyFbUKz7vSsVF19aFZoVi0QUNTlkOf57u7uFP4hRlPKIbAbzRf/GawnvtPOcdyLvxmU/ut5bfIV1/zeffvfZb732+0dpFBJs9KEKyUJ0IXnzruPkGa9ds+ehx99XNoOZQKcOt22G/t3eXlT1EmqnBGlFkvcbrfJZGppaVGywdCsuzxJlX84NKsWFJvyx1m6LcTlUMkXEi3ZthvNF1+zvvDy6xzHPf2T5+lkOef2vf2uu1vazlDOwAsvv07lP+78NctbvcFwgBJV+6b5lwdmr74mjzTru8vve+/7K9lJ98hXT1V86CjmWbU0DrPii9frVfgi09Cs7KzX6gY0KzSrFggoQbN6vd6KiopAIJCVywk6zQyB9GnWvmn+Y5/6TMH1e7/c+ETz0/Z3me/du29/z2uTPa9NXrtnz/0PVP/gpz8/+c3vGA8dvvqavK8/+XTfNN/SduYqne5zj3zlie+004IDpFmf7XqJDml+2l77pceu0umoPuZZMzNIcqEXQRAU6CY0q1alKvMLmlULio2FM2c3sq5ZvV6vyWRSfr6XAi8z6jJpN5r1R8/9ivJTpefpt9s72LJTv53wnzrd9t73V5YeuefTn/8irbraN80/2/XS/Q9Ulx65p8by+Rdefv1R67dIm/ZN80//5Pl77696d/l9zU/bH/nqqR899ytq/Gf/cq762EOlR+659/4qtmbWj577FetLakNmtrN+kqprpCnZWrvdXllZyfO80oyEZs3MuZzFXqBZoVm1QCC7l0MIVqVdutJnz240axb/0Cuh6+yepOkbEjnYsiAIFovFbDb7/X5FuQ/NqoQzPa02QLNqQbGldYioovHsXg55nu/o6FDU324YkyYC0KxJ/0HI7kmapvGQy83W1dWVl5crigA0a9Knp1oOhGaFZtUCAVwOFXXl0LAx0KxJX9twkmrvvPD5fIpyCpo16dNTLQdCs2pBsalltKXPzqxcDr1e79GjR5X2V1tRlxDtGQPNmvRZnJWTVHsjUIEeCYLQ39+vBMOgWZM+PdVyIDQrNKsWCGT+cuj3+00mU11dnRL+UsOGjBGAZk362pb5kzRjoyLHO+rt7S0sLFTCMljQrEmfnmo5EJpVC4pNLaMtfXZm+HLI87zZbIZgzcFLNTRr0mdxhk/SHBycWXTZ6XQWFhZm/f2u0KxJn55qORCaFZpVCwQyfDkUBMFut2fxCoGus0UAmjXpa1uGT9JsjZCc7bevr89sNmd33VZo1qRPT7UcCM2qBcWmltGWPjtxOczZK2WGHYdmTfosxkma4bGag91BsyZ9eqrlQGhWaFYtEMjM5ZDn+erqaq/Xm4MXA7hMBKBZk762ZeYkxUDNOoFAINDa2poVM6BZkz491XIgNKsWFJtaRlv67MzA5ZByWE+cOJGVv8XoVCEEoFmTPoszcJIqZJDkuBn0p9JisWQ+TwCaNenTUy0HQrNCs2qBQLovh4FAwGw2V1dXZ/6vcI5f/5TmPjRr0te2dJ+kShsquWwPz/NVVVXV1dUZfr8rNGvSp6daDoRm1YJiU8toS5+dGbgc2u12CNZcvgyT79CsSZ/FGThJMT6VQ0AQhPr6emjWpM8XHBiVADRrPM3a8YtXTp1u6351TMbuhZdfP3W67YnvtP92wi/bFfm1pe3M0z95PrJcsSWJOBXV+Fdc86dOt3X84hXae+p024+e+1XUmikvxOVQOdcqbVsCzZr0yYuTVNunhhK8wzxr0qenWg6EZo2nWWu/9BjHcT/8h3+WhvP5nlf37tt/lU7X0nZGWh5r+wbDgdIj98Taq6jy53tevfPuIy/+ZjA5q178zSDHcbVfeowO5zjugU8+mFxTOz0qTZdDQRAsFotCXvGihEsCbIBm3em5yeqn6STFmFQ4AUEQqqur3W53BuyEZmWnm1Y3oFl3pll3Klj7pnkVaVbS6NCs9LeV/tQihzUDVxoVdQHNmvS1EJpVReM8taa2trYaDAaXy5XaZiNbg2ZN+vRUy4HQrDvQrEkIVmjWzJwJ6bgcVl/5IIc18sKQyyXQrEmf0ek4SXN5KKrLd4fDUVBQkO57VtCsSZ+eajkQmjVRzUqC9do9e37w059Lo9vxi1dKj9wjy1gtPXLPI189RdVonrWl7cytt9/BcVzRrbed/OZ3pC284pr/7Be+bDx0mOM446HDtV967JzbJ60Quf2j53717vL73vTm667ds+dd5nul2Qtnzw1/7FOf2f/WG6/S6Ypuve2Rr55i+alk6rNdL33uka/cYDhwlU532x13sQyHBx96+AbDAY7j3n7X3Q8+9HDfNP/IV089+NDDLW1nCq7fe4PhwLfbO/qm+Z7XJllN46HDn/3Cl19xzZOF8XMDOn7xyr33VxVcv/fqa/LuvPsItUYHnjrdVnrknme7XjIeOvymN1/35cYnIl2OX5KOy6HD4YBgVdd1MQPWQrPGPxPj7E3HSZqBiKOLVBHo7e1N9yNZ0KxxTkBt7IJmTUizMsEa+VDRD//hnzmOO3W6TTogpKmcNxgOvOnN112l0332C1/++pNPv8t8L8dxn3vkK1T/nNt3591HrtLpaiyfP3W6rcby+at0utIj9zChKW2Wtr/d3nGVTmc8dPhR67cavvHUTcaDV+l0P+78dd80/8LLr+/dt//aPXs+/fkvfv3Jp+9/oJrjuHeX30etkanGQ4dvMh787Be+/NkvfLng+r0cx9GxJBw5jnvwoYfJnQc++eBNxoPX7tnz9rvuvsl48Medv+55bdJ46PBVOl31sYdOnW574JMPkvAl2RpHs/6489fX7tlzg+HAI189dfKb3yk9cg/HcUy7U06C8dBh46HDt91x16PWb0V6Hb8El8NUXVfQTnwC0Kzxz8Q4e3GSxh9aubM3fcoVmjXOCaiNXdCs22vWk9/8zt59+zmOu3bPnhdefl0W+EQ0K8dxbFrxtxP+d5nvvUqno+UIHn70cZnkPXW6jeO4hm88JeuIvv52wr933/6bjAfZ7ObZc8PX7tnz3vdX9k3z995fdZVOx57c75vmSQ6SBiVTpcdSSY3l89S4LJ/1gU8+yHHcw48+ziypPvYQx3HftTtYydeffJrViaNZjYcO7923X7oCw7vL77v6mrye1yaZkRUfOsp8ZO0nuJHCy2F9fX13d3fuXD/g6Y4IQLMmeEpGVkvhSbqjkKGy0giYzWabzZYOq6BZI887jZVAs26vWa/S6fbu2/+o9Vscx912x12yGdBENOtNxoPScfNdu4PjuK8/+XTfNH/r7Xfsf+uN0r1903zB9XvfZb5XVkhfn+16ieM4lnjACl94+fVzbt9VOh2JV3bsObfv6mvyqJBM/fTnv8j29k3z0inhqJpVKjT37ttfdOtt0sP7pvn9b72RCmNp1o5fvMJxnKxfgkBimvqVSmFZF9t+TdXlsK6uzmw2p28aIB1/ptFmJglAs257MsaqkKqTNJPhRl/pIOD1ek0mU0NDQ8obh2aNdfZpphyadXvNunff/ud7Xu2b5mmWkXI92QhIRLPee38Vq983zUu13VU63dXX5N1gOCD9d5VOR5fGBx96uPTIPewfrRcrm+lkLVOzn/3Cl1kJbRgPHabWyFTZnfdtNau0NY7jPvzxGmlJ3zRfeuSeq3Q6mV9SNdz8tJ3jOEqKZW7S1DUtjEWalSDLGk/wa0ouh/X19RCsKb+KaKxBaNYET8nIaik5STU2nHLWHa/Xazab/3/2zgauqfNe/Gc1H2XiSyZhRA00w0woIgMuTHDRhYkjaxnTLm5YmaZXemHK9W3QPyKzGeqMDl8Ld3Eyb67iNd7iYBU1s/mbCX/kMuBGiza2ceCCXeyyNe1yt6xNa/6f9bf73LMEYgghnHPy4+OnPZyX5+X7POecL895Xpqbm0NLAJ3V977j2B501sc7K2n/6zI/hJFSZI/J6gzEWQuKFPR6Q3dWiqKy5zZBAAAgAElEQVTmiRLKt9d4/QOzLChSEMmbJ0o43XYNeg54DfmCwOnB0qPzclY/XW9HbGclQfUNOuiCS/ZD51Q/zgppziso9Mpj+fYaGD3mFS8JOfCNkLwODQYDtrCG9hXCvdDQWQO/K73ODMlNyr0aFbE5cjqdIR/kis7qddNx71d01sc7K31U/tn261N4PP6cGH3PXagN4KxkOJHJ6jT036O73TxRQkpaJr3qNJ5pJSOQ5okSxAsW0o+arE59z12vHgjkhBPnLvr2dn3pYOOWnXUdtx9QFEV6hcIlfYOO6dHRsKjBY/Xayx2hPyuJ2mR1zpw1e3FmNn2PyeqEsVN+nPV02zXS55Vc22OxE4Ze8ZJzAt/A12HEvvnCnHF01sDvSq8z8SYNc11lS3QDAwOhaixAZ/W66bj3Kzrr2JzVZHXCqCkytP+V13ooilKUbCSVY9f+Y17OOoXHo3/4hpFSYGzQ34DebvrKaz1TeDwv9SSBd5kfeoljj8UeN3c+qGRGdu7UaVHEBU1WJ4yRgv6v43fWZ54tpiiKPsYL/Buy79XQSyD0WOwzZ82mj/0yWZ0vbHmRoiiYaWtynXXbtm1arZYtz3dM5+QSQGclz6KxbqCzTm7VZWzsKpUqJyfHZrONP4XBOauh/x591XFSsWE18hHXbyfnkI1TF656fcMkhyZlg3WLxgdICZ11zM7aN+jIyM6lL1IKs01t2Vl34tzFF7a8CNOmkmVL54kSpkdHx4sT1Y3ak+cvQ+Mlmevq0o07MDtVlerAyfOX9x1rgvPpXuhVljtq90F76olzFxvPtC6VraQoCqz3dNu1KTweiWvLzrrp0dHiBQthkoHHOuuWnXUURRUUKWB8mG8766sdt6ZHR8fExr10sPHk+cu79h+bOWt2TGwcWPJozkrUOSUt80iT7uT5y+Xba6bweBnZudCcPInOWl9fn5ycHJLH5fgfuBgC8wmgs3o9jgL/FZ2V+dV7slJYW1ubnJw8PDw8zgQE56zwZiSrjkOV7jI/hBe91wiW0Sq87+tytDPDs59FC3COCQg6qz9nrVIdgF6kXkwv3bgTL06MFyeCWZ5tvw7rBVAUFS9OPHXhakZ2LhkmD9vPb9oxhceDCbPos0fBpKowaSv1yU9KWiZMmOoVKf3X6j2HYAwTRVFxc+eTdQFMVuepC1dT0jIhqKnToorWrIP5pExW5+m2a/NECfSTYZkuklR9z11JUgqEabI615dt9X1D6650kdRO4fHyCgrJWq/6nrvzRAlkjNc8UQIJ2WR17jvWFC9OpCes4/YDyBRwpjcP0zMbyHZwr8OGhgYU1nG+JCLtct87IpD6CefUa5rp3dPniRKWSPO81igJMLR6TXNGdm6AJ/s/zfeZ4P/8oI8Gd5NGWgWL2PwePXpUpVKNM/uhctaxCqvJ6mSas1apDjCq3Tfo54bXheis/pzVC5b/Xw399/xbV5f54aUbd0brqApHiV/6jwuOXrpxZ7QYjTfvX7px57HraQUSy4jndNx+cOnGHTJH7IjnjLjT0H9vIhIW3Ouwu7sbW1jH+ZKItMvH46wwGLHusIb8Wypb6TWh8oh3je/OusOa8aSEHqDX/ND0Q6HdDu4mjbQKhvkdD4GQOCsRVnqby2PvBaY562MTzNIT0FlD5qwsrQHcSDa+DsfzoMdrAycwHlMEZ6XfcX2DDv6cGPrHR/ij7rF/u/o666Ubd8gXD3oU+p67l27cId80yCF9z12YehmdNfDSxzPDQMBoNAa9qsv4nZUIK/lgSG4Z+pLssHPdxs1kUiBwVvgOCfNXri/b6tWss2v/sZS0zKnTomJi41av3TBakxOJ8eT5y8tXyOGbatzc+c88W0zucViJHXobzpw1e+as2flPr6KveVRQpCAPFuPN+4qSjbA2e7w4UVGykf6E8bN6vKH/XlbusiNNuvynV02dFrVEmqco2UhW1iTpfObZYtIZksQFq8dX7zlE2ulImpdI86ZOiyLoSDiBbKCzorNygcCYnPXo0aNqtToMD1+MgnsEQuussCQHDGFsNfYnLUqbOWt23Nz5FEXlFRT2DTpgiOfZ9uvkaR43d/6u/cfoznrqwtV4cSK8t+aJEsj60qcuXI2bO58/JyYmNg7WW4ZA9D13U9Iyp0dHz5w1G5Z3Ds83xDHdpNyrOZijAAl0dnYKBIKWlpYAz6efNk5n9SOs9BnHyc2YlbuMPBDAWadHRxcUKeoOa1av3UBRFH1tINizfIX8pYONm6t2w43pR1sbz7RO4fGSFqVVqQ68dLARBkCTWYagDy5/TkxKWuZLBxurVAdiYuNiYuOI1NL7sy7OzJ4eHV2+vabusGZ92VZYcR1y0WV+mJKWOdrq8TBGBR4vME989Z5DZPwMhNBq7CfDe2B19+nR0c9v2lF3WANpJm4KaY4XJ8bExmVk55L9hGcgG+isXDC2QEqa2+cE/jo8evSoUCgcGhqiP+lwGwkESIC8ooK4obzaWfsGHbBH3ag1WZ0paZkFRQpok4Dp4WAe6JS0TNJecuLcxanTojpuPyDOaui/N3PW7Oc37egbdPQNOtaXbZ0eHW3ovweLPJOxnhARzF6SlbtsqWxll/lh36CjWFmG7awBFj2eFjYCZrNZJBIFsb7reJx1fdlWGHRFJrTxusfJTDhkv6+z0rsTwNhiWLb91IWrXvMLtRr7p06L8l2jhwS+ODM7JjaO3lILWgxWCv4nSUohJ8CMQ6vXboAQiLPqe+56zTX5wpYXxQsWgi7DPEj7jjWReOFZAeOwwVlnzpoN32T6Bh0dtx94JRumAIJUgZfTpwcFCPAoI84KaSbtryTqQDbQWdFZuUAgQGfVarVCodBsNoft4YsRcYzA+J2VDMOaOi2Koijyjjnbfp18sDP03+PPiYHmTxhwCc/3ojXroHGCOCvM3UGe/tDZoEp1oG/QcerCVfI+Awk+ef4yvMBIWyys7YztrByrpRzIjsViCWIKwvE46xQebwqPV6U6AJ8sSIMlEalAnJXebmq8eZ9cAn8ceoWZV1A4PTqahO+10XH7Af1bv8nqpAcC/kefGB7WpJw5azaEQ5y14/aDKTyeeMHCxjOtvkNcJEkpvs+0mbNmw3rv4KxeDaIFRYqp06LIsyVu7nyYAB5mcPcaG9plfkiecpBmutZ7ZTmQX9FZuWBsgZQ0t88J0FlNJhMKKwfeZ5OYBd/ne+B3FjRgwACsfceaTp6/DK0XEIK+5y609MTExs2cNXvqtChQSWjYgPfN9OhomNWOOGv59hqvl0RW7rJiZZnJ6nzltR5FycbFmdn8OTH8OTEURZ08fxleG/R35zxRAjrrJNYojDqEBMbprDCpzr5jTRRFLc7MJn8Kwh1KBJTc8l7trPw5MeQQbBCfg9Uiyd+rsDE9OpqiqEs37tQd1pAV2rNyl5H78ZXXerbsrHvm2eLFmdkzZ82GWXfg5oUbmd6iSeYugKcKcVYyqTxMW7RUtvKlg42kg7v/1ePBWb1mAYNJ2aFpFpIBCYbVlKZHR3tlk6Io+qpG0ILrBSrwX9FZ0Vm5QCBAZw3hwxGDikwC43fWEZ/OPRb7PFFCRnZuvab5ldd6TFYncVaT1VlQpHjm2eJ9x5ri5s6H9yjdWSVJKfQwU9IyX9jyoqH/3vTo6PynVx1p0r3acQvePSfPXz7bfp2iKHr7DTprZNZktuTaYDAUFxcHuMrreJyV3v4H/byf37SDfmc91lnj5s6nnw9TSYKuZeUumzotynf18vLtNR23H8Bsj0T1YPhX9Z5DU3g8WMayWFlWd1gDKxAF4awwpebmqt0Z2bkw5ybp+QoTdPomDNIworNCL3zoqrt67Ybp0dHQ5gonJy1K8w0NpJYuuF6gAv8VnZULxhZ4eXP1TP/O2tLSUlFRwZZnNKaTyQQmyFlBJclKIq923KJ3M2080zo9OjqvoJC8RImzQpsHcdBLN+5M4fHqNc3QVkS+3x3XtkA7KyxKV73nEDwKvCKa0OeD/5uUyYWOaZtEAi6XS6FQyOXyQNZ3HY+z0lsTO24/gKGQ9CUqKYry6n4Klgl3DXQ2pX98h8/icAmMRiKdf+AS48375A71uvU6Puk2mrQojTSImqzO5zftgHZZk9UJ/gdd4cm1S2UrSWcDejurof8eCQdmCaAoCh4mcXPne/3RS189fjRnfWHLi1N4PH3P3ZmzZpMZA/oGHVN4vKWylSQ9sEG+6qCzBnoficViL4j4K8cI+HkdtrS0iEQi7BIQ6N2C5/klMEHOCmsy5xUUnjh3se6wRrxg4cxZs4lZQsMGRVFkCWjirCarc4k0L16c+NLBxpcONsaLE2FZ6VZj/xQeb/XaDSfPX65SHYC1+uAFvGv/senR0Vt21u071iRJSqE36E7oY8HPTeoXOR6MdAJut1upVMpksseCCJWzEimMiY0jHXj4c2LoegdzepAHAjgr/cN3leoARVGglfA3JF2Lu8wP4+bOj4mN8+qBAPcgdECnN/32DTrECxZSFAWziID/Qa9TuOTSjTv00VHEWes1zRRF0RMGI/1hZKfv6vG6K12w0KbJ6hzNWWH/8hVyiqJI53iT1QkTTsOXIkgV/FENcaGzPrYC/+0EdNYJfRUxIfDRXodtbW18Ph+FNdBbBc97HAHyigqi2p+6cJW0Sfhefrb9ekGRIit3maJkY6uxv3rPIfoAi2Jl2eLMbHLVqQtXyfusx2LfsrNuqWzlUtnKKtUB0tJz4tzFvILCrNxl68u26nvuvrDlRRjCbLI6jzTplq+QL18hP3Hu4vqyrfS3Doki5Buj3aSPQ47HkcBfCZhMJgJitDbXEDorrARJn68KrLRozboT5y7CyMiY2DjyQChas27qtCj4U/Pk+ctbdtZN4fHgD0iT1QlLvk/h8daXbT15/vJxbcvizGz6txSv2w2+h8ycNbte03zpxp3GM60Z2bkwahNWzgP/g+4KJ89fVjdq48WJ06OjSaMmcVbodzQ9OnrX/mMkarKUCVk9vnrPIfrq8eCdozkrjPeCfgX0lOuudHmt7k6f0gudlVTgx2ygs9JrFSe3R3sdms3mzs7Ox9QPPIwEAiZAXlFhvo8kSSl0hQ1z7CGJbrSbNGD2eCIS+CuBK1euxMTEuFwuXxzBOSusau67iEDfoANGWZExRnkFhTAQauas2bv2H4NBk3B3wPa+Y00wWGoKj1e0Zh3903+X+SF4LYQQN3c+GWs14v0F8y7DyTDjKaQTPr+A/z2/aQdZNz4lLZM+kTN9AtRWYz9ZcZ2iKJhDgET6asct+lH66vFe67GTS0xWp7pRS1+qnRw6234ddBxSvkSaR74Ojbh6PLkwwA3sz4r9WblAgP46HO1PcN8HHO5BAmMlEH5nLd9es0SaFzd3PmlADfDhzrTT6DfpWLHj+UgACJw7d27q1KkURX3nO9/xZRKcs47pToF1y0f8oA/h9A06/CxsDkfpU2L5jx3WsfM9h95mqe+569VT1vd8k9Xpf314/0dHDNDPTqBEOtH6OXOsh9BZw2dssHDZ2fbrz2/aETd3/tRpUUtlK1/tuGXov1dQpJg5azZ/ToyiZCP9L7PGM61LZSvJ0m2r124gfWsaz7Rm5S57tePWuo2bIbSM7Fz4agCVoG/QUb3nEMyRAauolW+vod9puitdS2UrYS661Ws3nDh3MSt3GRkFYrI6/Sw0V1Ck2LKzbnPV7unR0ZKkFHr/lbFWwZCcT16Hd+7c+exnP9vc3IyDrnwf6Lhn/ATC76xVqgPQWyAkd8okBkJu0vGXAoYQmQSGh4dnzJgxZcoUiqJ4PJ5v80QYnHUS7yB61HRnpe/n/DY6a/icFSqZeMFCSVLKC1teVJRshJXZxAsWLl8hh9YUiqJINzXoOr04M5u+dFtKWiZUSpjrUZKUAqGt27h5enT01GlRZAQx9K1+5tniXfuPVakOwAofJHDS72Rz1e4q1QHxgoUwVxyZ7w367oy20ByMl5w6LSojO3eeKIHu2ZNyz5DXYU5Ozqc+9alPf/rTzc3NkflYx1xPKIHwO+uk3FATESm5SSe0gDBwbhOwWCzf/va3Z8+ePWXKlOeee84rs+isE3HnMipMdNZwO2u8OJEYHnghrDYO3bTj5s4nCwonLUqLiY2jfxCESePgswI4a0Z2Lmk6hZGJO2r3maxOQ/+9KTweffmKvkEHPfAl0ryp06JIf+0u80MYkwjOCgvNwczkUF9hoTkygmSeKIEsOkwSMIk1G16H9+/ff+KJJyiKmjJlikgk8v0r3OsBh78igbESQGcN+jZHZx1rZcPzRyNgsVjWr18fFxfn1as1cpy11dhftGZdeEZPBn3LT8SF6KzhdlbS0mmyOmEpXvoHffq6GtAjhF7q9KXbwFnps+F4DfEz9N+j93HpsdhT0jLhjdtx+4Hv9MjVew7BDI5ea8SRBNAXmpsnSvCdP5mcGf4NeB3m5eU98cQTM2bMKCsrs9lsoz3vcD8SCJoAOmvQdzfbndVoNGq12tEeLGazWavVBjFFSWdnJ32RUqfTefToUaVSWV1djX91j3CffvyR+53f/qmn8/2f/Xv/vu9379r2++M/fPcnR9+/cPbPPR1p8fE3778XdBXFC5lPAJ013M5Kn6ENnJU0dsL8EfSX4iuv9Wyu2g1Lt8G3ezKlMFkHklQyL2c1WZ0wkU3+06uSFqXB6hcQOMz9Rk8JmY4O2ln9LzRHX96DxD65G/Pjn7TZbNHR0d/97ndHe6mM8PjDXUhgjATot+fk1nnWxc52Z9VoNBRF7d27d8QqU1xcTFHU0NDQiEf97FQqlRRFkRPk8r/Oecnn80UiEdmJGx6P55Hb/Zc377z70+O/rfjO/a8vvbfkc28lf+bNz336rjjqzST+vS+K7xfm/jh+1usHD9w09pgGHay7QTDBgRBAZ2Wus8KMxPSl23zbWemTZdCdtW/QsVS2kqKomNi45Svk68u2woRwgTurn4XmmOmsvb29aKv4bptoAuisgbxXRjyH7c7qdDqjoqIkEolvHXM4HFFRUXK53PfQY/e0tbWpVCo4zel0/nU69/z8AJcqfWzgnDnhI8cf/vjqf7y96blf50reTIy+mzB1xH+346fezf7c7fXffL3p1M2B34xYD3EnqwmgszLUWaFDakZ2Lun8arI6123cHGA7q7pRSx/OBXVUkpQCb1zoG+C1DN2u/cdI34DHLjRH5isOf+3vv//HX77+zumLb3z/yLVvl//7kq8eT8zYE5NYHbewNjF9z5cKjm34bvORf/mlsdPytu29jz9+xJmnNmaECQTQWYO+5dnurB6PB9pEe3t7vapiU1MTRVE6nc5r/1h/HRoaoiiKKOxYL+fq+e6Hv3236fj9p5e8+flZ3qr65LQ3xVHeOxfMfGNF5oB6/83+N4OurnghMwmgszLUWcmMwaTedJkfxosTA3RW6HVAXyvZa6G5pbKVU6dFkcl+u8wPJUkpxFlhONfmqt302GNi48hCc5PlrD2Wdy8Yf/1/Drwm/XrD3KdeikmsGfHf3KTvLy04uudHv/hV/2/+9OcPuPco7+7uVqvVSqVy27ZtTU1NdrudnkevHnL0Q7g9TgLorOSZMNYNDjir0WikKGrbtm1etUgqlQoEAjIeqK2tTSaTicXi5OTk8vJy+u1ZXFysVqs1Go1EIpFKpQMDA2q1GlYl1Wq1OTk5f53yXSyWyWTNzc0ymcyrK4LNZpPJZE1NTV4J4PCvbvs7fzhxeFC26O7fu6klfe6Df1xtr1fZD/3g7X9aY8mY/3fmKo56I3fhwL49plu/HmtFxfOZTACdlaHOCuuP8+fEHGnSXbpx57i2JSUtE7q0wlBB//1ZQXkzsnNPt117tePWSwcbY2LjpkdHT4+OhurYauyfHh3NnxPz/KYdm6t2S5JS6HNd9Q06UtIy/Sw0NynOeuPNd3/aOvDN0uaExT/wVVXBgl1eO+en7P7Gc00/vzzw3vsjrJjC0qe8y+VatWoVLDFC/hsVFaXRaEiOvHrIkf24MX4C6KxBv8844Kwejyc5OVkoFNK/3VssFoqiKisroXZVV1dTFJWTk7N3797KykromUq6LYnF4tTUVB6Pl5OTw+fzbTYbuVvb2toUCgVFUenp6UqlsrOzMycnh67CHo/n6NGjFEXRVzEdf5Vmcggf/8X13vl/HVqZ4S2sXxA+rNnsMv3qo/cdH//xPdfr/e+8tN2SPs9bW6WLXn/5ZdOvfx90pcULmUYAnTV8zuq7QFyV6sA8UQJ9SYyCIkVGdi7UklMXrsKUUn/tkj8n5oUtL8Kelw42mqzOek3zPFFCvaaZVCmvZdZgwn/QGvGChfuONUF0pG211difV1A4T5QQL05cX7aVPm8ArJnhZ6E5+rpwJAETutH95rua/7i5cs1PPruwlu6mc5966Qtfro/93D9+c/2p5U8ff/LvdTZWskv6tePnf2b6o5Mj2gpvxPLycvIWNBqNycnJFEWRVWrpPeSY/EJiY9rQWYO+zbnhrGq1mqIog8FAam9tbS1FUQMDAx6Px2QyURRVUlJCjprN5qioKLJHLBZTFAUTBYD4Emf1eDxefQNg1FdbWxsJLf2TH/Ir5zf+1Ns1vL7QtwOrdW3Bn7qvex79T9evR4/+3HdjeP3X/85ZE6be/Vz0ndX5t9pfC7rS4oVMI4DOGj5nDa7sR1u6LZDQYJk4snQW/RLdlS76TFgmqxOGfNHXwYIpYy/duEO3anogYdvuG3z/9MU35Gt/Gvv5vxNWYfLurzx74kdN3fMSnrL//r9fM959fvO/JyxW0aU2VrJL9vWGS7+443Z/zIFHPHxw9MpIb28vRVFKpdJrP/4acgLorEHf9dxwVpvNxuPxiIN6PB6RSJSTkwM1Df6kBH8ldU+hUERFRYGhisViPp9PDpE+srDHy1lhaNeqVavgKAjx0aNH6ZdzePvRf//RfvD73q2nn4y+eli9yW17m573j96xvfOD73k7a8JU82Lh7f+z4+bdh0HXW7yQUQTQWZnurBNUXWA8FlkOAPqz8ufEkD0TFG9wwep/9faGra/4dmDNWnHk0Kn/7L//R3gdPnrkufGroWe+/RO6s8Yk1sxN+v63lNo3Le/Qn3Es3RYKhRKJhP5pEjKyd+/e9vZ22CY95ODX4eHh0tJSySc/paWlAwMDMplMr9d7PB7oHqfX6zUaTXp6ulgslkqlLS0tLIUThmSjswZ3C5usTm44q8fjKSwsnDFjBvReNRgMpN0UDlEUJfv7H5FIRKbBEovFRHChuvppZ/V4PMXFxVFRUQ6Hw+PxVFZW8ng8eu/YMFT4SYzC9V//aV1bcPfJab4mavte6YfWv5tWzP328MPaLb5n3n1y2htFsltXfhl0vcULGUUAnTVCnRW6wyYtSnt+0471ZVvjxYlTeDz6zFnMqaa/GnxvT2PHYulBLxONSax59h/PXOq20l+H7/zOuedHv/A9Myl73976q3/5wD2Jj+CQRF1eXg6z4ej1ejLmwytk+lvQZrMJhcIZM2ZUVFTU1tampqYKhULyloV2neTkZIFAUFFRUVlZKRAIKIoCo/UKFn/1eDzorEE/GTjjrO3t7RRFwerQSqWS+KvH45HJZDDwX+XzA94J46votxL9bvVqZ/V4PODETU1NbrdbKBSSNld6CFzdfvdfG36dKxlBQxOm3v/6Uqf+54/cH0LeH334ofOa/v7qL4948hvZia/X/yjoeosXMooAOmuEOqvJ6mw805r/9CrxgoWSpJRnni1m7Cpwl7qt3yo7GyvxHmIVk1jzzdJmfe8DurP+/t0/HTj2f32dNVayS67QmN9ifVOr0+ksLCyEbspRUVFSqVSlUnmNyaC/BcFxjUYjPNydTmdWVpaXs8JYEDjBt0MeV9+IweULnTXoFxhnnBX0sbCw0Ol0zpgxo7y8nNQluPVIX3PYT28ZHauzQt+D/Px8kFd631YSKSc3Hn3wl4e7t761cPaIGvpW8mcelCqcl3/2wVtvfGAxO/U/f3vTc289NWfEk+8u5N+uKDUNvRt01cULmUMAnTVynZU5tdB/So6e6c1aedRXQ2MSa2Tf+JeTF271D70Pr8OPP350+w1b6ZZzI578BenBk//WzY3ne3d3d2VlZXp6Opk6QC6Xk1cj3Vn5fD7MpEMy3tLS4uWs9M55Ho9HIBB4XUKuxQ10Vv93q5+jnHFWj8dTXV3N4/EaGhooiqJP16rT6SiKqq2tJXeK2+2WSCR8Pp/0Z/W6ueh3q287q8fjqa2t5fF4xcXFAoHAt1MQiYhjG+7f2d7e9NyIHQNATN9M4t9/esnbFSW//efv3C/MfSv5MyMLa8LUu09Ou7P26zdfv++ncuIhthBAZ0VnZTSB/qH3v7dXH5/6d8OqiJLGp6pK/vl8y7V78xI+/67jz5Zf/66+4drCrL3kBPpG/CLV5soWjq0y4HA4dDqdVCqlKIosw0PegsPDw75js2BqHhi5POI70rcpiGOvw/FkB5016Hcbl5zVbDZTFCUQCNLT0+nVye12Z2Vl8Xi82tragYGB7u5u+CpSX18Pp/neXORu9Z03AC6BG3bEeWHpUXNs+4PBtx48v2pUDR1lHazRzv/r7AE3Xg+66uKFzCGAzspoY2NORZmslHS+8Xvl9hbBgpHXDohJrIlPVX31WyfjnnzmmOb6xopzksw9dE+lbwsW1Hzjuab3//gX9j7czWazVqv1XdPc7XbDbOTQ1EregqCkXvMJwE501uCqATpr0I8CLjmrx+OBPxQbGhq8KpLdbi8pKeHxePANhM/nq9Vqck4Qzkq6yXp1ASJhcnLjg3t3Hyi/MZqDjnX/G9/Iu9nRF3TVxQuZQwCdFZ2V0QSu/OrBt8r+na6e49n+6rM//vX9P7D3EQ9fHkec7AYm2QGdJc7q8XhmzJhB2l8h4zCCBJ01uGqAzhr024tjzuq//jidTpPJZDabQ/I1Pz8/36tB13/sHGLrx2sAACAASURBVDj64fD9B6WKsbrpaOe/8c2v3vzP20FXXbyQOQTQWRltbMypKJOVkkvdVkVp83g8lX7tV4oab5tt7H2g2+32qKgooVBoNpvpuXA4HGKxmCzPQ3dWpVLJ4/HIhJFutzs/P9+rP6vX+ua+TUH0uCJ8G5016EdBRDlrCG+TgYEBiqJ8G3RDGAUDg/rofcdvtz3vtfzVaEr6mP3iqDe+86zpjb+O1sV/bCeAzoqVmNEEftH74FtlZ+neOZ7tFd9ovMvyWVphaZyoqCilUqnRaLRabWVlJUxfBZPv+M5SLhQKBQLB3r17NRqNVCqdMWMGOmvQL2l01qDfeeisY611Wq1WJpPB6q+jTWw31jDZcv6jjz6yH6h9a1HsY3w0kI6tyXNu76gw3X8/6KqLFzKHADoro42NORVlslJy/bZ9w7YWwYIRJroaq7wKFtQUfvsn7/zOyZan9mjpbG9vh/mqyKQBqampZEEBL2f1eDwWiwVmQZ8xY0ZxcTF0MMC+AaPh9b8fnTXoRwE6q/+q5Xu0ra0Nlvnw+q7ieyYn97zfdm4wP338zvrGl556XfOToOstXsgoAuis6KyMJtA/9P62usvzUl4aq6H6nj836fvKTWfdH3FhBVePx+NwOHp7ezs7O70mg/R6ew0PD3u10MBcV3TH9boEf/VDAJ016BcYOqufeoWHfAl8OGh5+7tr31wQPS5t/Vz0G2u/fvP/3Qy63uKFjCKAzspoY2NUXZmsxPzop93pskO+DjrWPU8t2V//8t+m1vd9PnJ1j1wuFwgEdG0tLCyMqBUgQ1uyIXHWLvNDfc/dybqhJitedNbQVkXOh/bI7X5X2/jrLy0cj7O+kZ048KODpkHHZFV7jDe0BNBZ0VmZTuDCL3+96vl/G3EdrMC1VbCg5itFjT39v+H8g94rg9ATIDU1tba2VqVSwQQ99DnPvc7HX/0TGKeznjx/OSUtEzp1TI+OXr12Q5f5ITzTC4oUVaoDoX2+v9px62z79dCGGXRo6Kz+qxYe9SXwwdA9W1XZW0/FBKmtT82580/rb+LMrBwafIbOynRjC/oNwZkLewffqzn42oLMfYEbqu+Z4rQffK+27cMPP/J9LHJ+j16vl8vl4k9+5HJ5S0sL57McdAbpDdIjBjIeZ710487UaVFFa9bprnRdunFH3aiNiY1bvkIOt+qWnXVHmnShvW3jxYl1hzWhDTPo0NBZR6xRkbnzsTcawfKn/3ftwfqvv5XEH6u2mj8/+w1FwesXLgZdY/FCBhJAZ0VnZQGBn10fVJSe+ezna31lNJA9n/187dcUmt7/spLnIG4ggREJxMTEVFZW+hnyMh5nrd5ziD8nhv4aONL016U+Df336Dth23jz/qUbd/pG+qZp6L/ne6jHYr90447X/nmihACd1XjzvvHm/y5uqe+56xWUbwrHugeddcQqF5k7H3ujESyPPvzQ+YtXrc/J3/SzOqvv7AFJ/DdWrXj9zDnsFTDW+5Th56OzssDYGF6HwpO8l8/2537t5dixa2usZFdW3qGfnvnPR48ekecgbiCBEQnMmDEjNjZ25syZubm5Op3OtzVoPM56pEk3hcc7ce5/G376Bh2XbtyBOygrd1n59hqT1dk36Chas24Kjxc3d/48UUJBkaJozTqT1Vl3WJORnfvMs8XTo6PhqO5KF1xbvr1m6rSouLnzp0dHz5w1G9pr54kSoBNCVu4yk9VJUdTJ85fh/JPnL1MUBVHPEyWsL9s6hcebwuN13H7QauxPWpQ2c9bsmNi4mNi4UxeuhuoGR2cdscpF5s4ZM2bExcX5udHoWB59+MF/X7ti/Vb+m4nTA2ptTZz+xjPLbuku3Bx8N1S1F8NhCAF0VnRWdhD41eB76p/cyMg7NCZtjZXs+oL0YH3DtQ8+cNMfgr7bKpWKTB0F80CRSaNgP+4cExCZTEZ4Go1/G/rG/J18Ph+SPXXq1CeeeEIoFJLEQ50Zj7P2DTqWSPMoihIvWFisLFM3aklnVpPVSZy1fHvNPFECCCVoLnFWiqLKt9f0DTo6bj+QJKXkP73KZHWeunB1Co93uu0a+O4zzxZLklLgBUNvZ/XjrPNECWfbr59uu9Zjsc8TJaxeuwHad7fsrJseHT1iM3AQLzBwVrzRQvs8Yf49BTeOVzofe6N5PaIfffzx74/9MMDpWs3JMQM7v/dfOCErh7qxkgcOOis7jI0UWCRv9Pz6vfqf/md2/pEAp2sVLNiVvuxgw086/vKXxwir1/MRf41YArNmzfrc5z6XkJAQHx+vVqt95xEbj7PCzXvi3EVFyUbxgoUURU2dFlW95xDsJ846T5Swo3YfudOXr5ATZ506LYr0Fnhhy4vQgGq8eR+EFS7ZXLWbJDJAZ4X2XZPVeVzbQlFUx+3/XTEobu58kkKSpOA2sJ01Ym8r34zPmjVLIpE8+eSTo91ovpe8//Pz1uKvDkqT3koRjNbaakqYZl4ieaMoDydkDe4mZf5V6KzorGwi0H//j98/YoxPVQXSjXV+yktb/8/PPuLKhKy+D3HcE3ICPB5PoVDo9frRQiY6OP6Hu77nrqJkI0VR8P2dOCtFUce1LST8F7a8SJyVHnv59hpwVnDNvILCpEVpU6dF8efEkNMCdFbS57VKdYC0jpMNYrQkScFtoLOOVqkicP9jbzRfJh85/vDnG79896cv/0bxldGc9ecJMwZ+dPD11ks3B34TXC3FqxhOAJ2VTcbG8MoUnuSpf3IjZemBuM9/38/sV7GSXcKF30/+4g9/cECP3Vh9n/64x5eAw+FoaGiQ5X0l4UnxzJmziLF5bRAdDKK25xUUbq7a7XVhTGwcSCFx1unR0S8dbCSnFSvL/DvrvmNNU3i88u01J89fNt68/9LBRpLIsTrrrv3HZs6aDWO5yH/pza4kVUFsoLP61rqI3eP7BSNAFB/+9oGt8p9Gc1ZN/KybvW8EUTnxErYQQGdFZ2UZAePr7xw/01te/fMvPfPyaK2t/yA7VK262PwffQ9++16Aj0I8LZIJaDSaOXPmyPK/tnXnnsMnzx396X/U7DuSsjhD+uUVXo9yooNe+wP5VVGyMSY2jr6agL7n7tRpUepGLb0/a15BIZkAq8v8MG7ufP/OWrRmHWlwNVmdRWvWkUTOEyUQ/aUoisyltWv/MfoYLNLOqrvSRe/22nH7QUpaJr3RN5BsjnYOOmsk32KhyvuozvrkNMuiWHU8/6bJMloNxP0cIIDOyjJj40CdC0kWrt18+E8vto3mrGuU/3rf+m6onpIYDrcJbN269fNJTx0+ee5se4fXv6cWZ9TUHaTXWKKD9J0Bbhtv3hcvWDhz1uyiNevKt9coSjbOnDU7IzsXuqiSdtZWY//06OjlK+Tl22skSSkxsXH+nXVH7b6p06J27T/WeKa1WFkWExtHURQkaXFmdtKiNNDWxZnZ4gULd+0/Vr69BtY1IPMGEGc1WZ0FRYqY2Lgq1YF9x5rgEmxn5Xb9Z1fuRnPWe18U26rKCuOFpsE/BHg/4mlsJIDOis7KSgL+nfVbSu196x/Y9SzG1E4KgaNHjz61KPWnLb/wslX4tWbfkcwv5tKf7ONxVpPV2WV+WKU6kFdQmJW7LK+g8KWDjWRMFX1NgUs37myu2l2sLDtx7mLRmnXgrKcuXF1ftpUk5kiTbsvOOpgrYEftviXSvOUr5NV7Dhn67xWtWQetuafbrq1euwGuMvTfK1aWZeUuK1aWwTkwIev6sq30Ca36Bh3Vew4tXyHPyl32/KYd9ElbSdTBbWA766TUcI5FOpqzvl1e/MGgZX78k8FVTryKLQTQWVlpbGypXhOXztGcNW5h7bKnjzef73W5cK4Ajr2tQp8dm802a/bsl7UXRhTWs+0dL2svfFY4j16Nx+ms9KBG215fthV6C4CPihcsDNUoqNFiDM9+dNbQ1+DIC3E0Zx0q+If3zmuT4uPDU5kxlskigM6KzspKAqM563MvnL5v/cPHH+PyAZH3Nht7jmtra7+heG40YT3b3rH7YEPqFzLpT+cwOGv1nkPTo6PLt9fs2n9sqWylVxdYemLYtY3OOvYaild4ExjNWe8+Oe03z8pWxQtNv/kju+4LTO2YCKCzstLYxlTGnDx5NGdd8Y3Gq9fMOFeA95Mefx+JQEZG5u6DDX6c9Ytfkv1z5S76HRQGZzVZnUeadIqSjUVr1m2u2h3Cr/P0jIR/G511pDqI+8ZGYDRnfStF8OAfV38jQYiLtYb/1g5njOis6KysJDCas37287UF3/yx4Zdvju1BiGdHJIFp06Zpf2YY0VkPnzy3PP9rySmLSX9TeC6Hx1nD+Q4IW1zorBF5k4U406M561B++nvnTklE8djOGrY7elIiQmdlpbFNSl1hVKR+nHVpwdEz53vd7o9D/LDE4DhHYMoU3ojCmpKW4TUtK/kVnTW450CX+SE6K+duoEnI0GjO+tbC2dZv5RcnxJksvwuuiuJVrCCAzorOykoCozlr7lePnn2l/4MPP5qEpylGyTYCU6bwTv/cOKK2jrizXnNGkpTCiic70xL5asetJz+3gG0VBNPLOAKjOevdhKlvfX7W0Xi+qf9NplV+TE8ICUSEswqFQtJMghvcIPDElBnRMSt952eNT1WtLT3d2f1rNy7ZyrjXDeMSlJz81J4jPxlRT0fcufXF3QVFihA+fyMnqHpN81e++jTjagAmiG0ERnPWN5P4w8UFa+bOmfYpbrziMBcjE8jJyWFOnaWYkxRMCcMJvPM75649l3ydVbBg19yk768vb7Y+cDA8C5i8SSew43vfe3atckQ9HXFn8qLFoVoUKnJsFXL6zLPFBw8fn/QSxwSwncBozjr01cz3LzQ/cv2Z7Rn0n/6Ojo4XX3zxy1/+8ty5c+Pi4jo7O/2fj0cnlAA664Ti5VTgozlrrGTXP3y5/uUTHc7//gunMoyZmQACFouF/5nPnDx/eURD9dr5j5t2pGVkRZprhiS/r3bc+sycmD+8i39GTkAljrAgR3PWtxbOHt5Q9KcbxkcfcbNjmMlkmjlzJrQ9fupTn/r0pz+NwjrpdR+dddKLgDUJGM1Zl+Qf1p7t+e8/ffAIZ2hlTWFOZkKrql7MzM59bK/WrTv3fDZu7qsdt0LicBEVSJf5YdKitCMv/8tkFjPGzRUC7nd++3BXxZsLZtxNmEr/92Zi9H159vstZx59xM3VZFwu19q1a6dNm0ZR1KxZs1BYmVCj0VmZUArsSMNozvrk4h8oN5391X/95mOUVnaU5CSn0u12f2PVqozsnNFaW7U/M6wqXh8bJ9Rd6Yoo1wxJZvU9d1PSMv9p05ZJLmaMnisEHrn+/P7FV6zFX7V8Ye7dxOi/aevnpg997Yvvt/67h6PC2tLSIhaLFQrFD3/4w6ioKBRWhlRndFaGFAQLkjGaswoW1GR8+Uc/PtWFY7BYUIrMSKLb7f5eZdVsPn9V8fo9R34Cba7anxl+UP/jNd8p5X9mzle++jRnJvYPiYk+NpAei/3UhavrNm6eOWv2/h8dZkY5Yyq4Q+Cj3//uvfNaa3GBJU345sLZ95/J+WObjpPCajKZZDJZenq60WiE8nM4sI8NU2oyOitTSoL56fjTnz44d6H/SwXHYiW76COxUnL276u/av/9f+NSWMwvREal0GKxfHdzRaJk4ZQpU0YesIp7AyYwbVrU4vTMHS/WvP3b3zKqlDExXCLw0e8eOv7tx29veu69ljOej7nWjdVms5WWlopEoqamJrebmx0e2F4b0VnZXoLhS/+jR54/Ov9y6/bbh16+JpX/zVxTc9XqI4bf2Z0orOErCYyJSQQYNXkhk8BgWpAAawi4XC61Wi0QCKqrq7FVlcnFhs7K5NJhYtrc7o8d7/355sCDQy9fW6P814PH/+/vsIWViQWFaQoTAXTWMIHGaJDAxBBoa2uTSCSFhYUWi2ViYsBQQ0YAnTVkKDEgJIAEIpAAOmsEFjpmmRsEBgYG8vPzU1NTDQYDN3LE+Vygs3K+iDGDSAAJTCCBo0ePTmDoGDQSQAITQMBut5eXlwuFQo1Gg11XJwDwRAWJzjpRZDFcJIAEkAASQAJIgFEE3G53fX29QCCorKzErquMKppAEoPOGgglPAcJIAEkgASQABJgN4H29naJRCKXy81mM7tzEqmpR2eN1JLHfCMBJBAKAtg3IBQUMQwkMLEEzGZzfn5+cnKyXq+f2Jgw9IkkgM46kXQxbCSABLhOAMdgcb2EMX/sJuBwOCoqKgQCQUNDA3ZdZXdZejzorGwvQUw/EkACk0kAnXUy6WPcSGB0Am63u6GhQSAQVFRUYNfV0Tmx6Qg6K5tKC9OKBJAA0wigszKtRDA9SMDj8ej1+uTk5Pz8fOy6yqX6gM7KpdLEvCABJBBuAtifNdzEMT4k4JeA2WyWy+USiaS9vd3viXiQfQTQWdlXZphiJIAEkAASQAJIwIuAw+GorKwUCAT19fXYddULDjd+RWflRjliLpAAEkACSAAJRCgBt9ut0WiEQmF5ebndbo9QChGQbXTWCChkzCISQAITRgD7BkwYWgwYCQREwGAwpKam5ufnDwwMBHQBnsRaAuisrC06TDgSQAIMIIBjsBhQCJiECCVgsVgKCwslEklbW1uEIoiwbKOzRliBY3aRABIIKQF01pDixMCQQEAEHA5HdXW1QCBQq9Uulyuga/Ak9hNAZ2V/GWIOkAASmDwC6KyTxx5jjkQCbre7qalJJBKVlpbabLZIRBDBeUZnjeDCx6wjASQwbgLYn3XcCDEAJBAoAaPRmJ6eLpPJTCZToNfgeRwigM7KocLErCABJIAEkAAS4CIBi8WiUCjEYnFLSwsX84d5CogAOmtAmPAkJIAEkAASQAJIIPwESNfVvXv3YtfV8PNnVIzorIwqDkwMEkACLCOAfQNYVmCYXFYR0Gq1QqFQqVRi11VWldtEJRaddaLIYrhIAAlEAgEcgxUJpYx5DD+Bzs7OrKwsqVTa29sb/tgxRmYSQGdlZrlgqpAAEmAHAXRWdpQTppI9BIaGhoqLi8VisU6nY0+qMaXhIIDOGg7KGAcSQAJcJYDOytWSxXyFn4DT6aytreXz+dh1NfzwWREjOisrigkTiQSQAEMJYH9WhhYMJottBJqbm4VCYUlJyfDwMNvSjukNEwF01jCBxmiQABJAAkgACSABXwLd3d05n/x0d3f7HsU9SIAQQGclKHADCSABJIAEkAASCB+B4eHhkpISkUjU3NwcvlgxJtYSQGdlbdFhwpEAEmAAAewbwIBCwCSwj4DL5VKpVHw+X6VS4ayr7Cu/SUoxOuskgcdokQAS4AQBHIPFiWLETISVQHNzs0gkKi4uHhoaCmvEGBnLCaCzsrwAMflIAAlMKgF01knFj5GzjEBvb29OTk5WVlZnZyfLko7JZQABdFYGFAImAQkgAdYSQGdlbdFhwsNKwGazKZVKoVCo1WrDGjFGxiEC6KwcKkzMChJAAmEngP1Zw44cI2QZAZfLtXfvXoFAUFtb63Q6WZZ6TC6TCKCzMqk0MC1IAAkgASSABDhEQKfTicVihUKBXVc5VKqTlhV01klDjxEjASSABJAAEuAqgd7eXqlUmp6ebjQauZpHzFeYCaCzhhk4RocEkACnCGDfAE4VJ2YmFARsNltpaalIJGpqanK73aEIEsNAAn8lgM6K9QAJIAEkEDwBHIMVPDu8knMEXC6XWq0WCoXV1dUOh4Nz+cMMTTIBdNZJLgCMHgkgAVYTQGdldfFh4kNIoKWlRSKRKBQKi8USwmAxKCRACKCzEhS4gQSQABIYMwF01jEjwws4R8BkMslkstTUVIPBwLnMYYYYRACdlUGFgUlBAkiAdQSwPyvrigwTHEICdru9vLxcKBRqNBrsuhpCsBjUiATQWUfEgjuRABJAAkgACSCBUQm43e76+nqBQFBZWYldV0fFhAdCSgCdNaQ4MTAkgASQABJAAlwn0N7eLpFICgsLsesq14uaWflDZ2VWeWBqkAASYBcB7BvArvLC1I6TwMDAQH5+fnJyMnZdHSdJvDwIAuisQUDDS5AAEkACfyOAY7CwKkQIAei6KhAIGhoasOtqhBQ607KJzsq0EsH0IAEkwCYC6KxsKi1Ma1AE3G53Q0ODQCCoqKjArqtBIcSLQkMAnTU0HDEUJIAEIpMAOmtklnvk5Fqv1ycnJ8vlcrPZHDm5xpwykwA6KzPLBVOFBJAAOwhgf1Z2lBOmcuwEzGazXC5PTk7W6/VjvxqvQAKhJ4DOGnqmGCISQAJIAAkgAfYScDgcFRUVAoGgvr4eu66ytxy5l3J0Vu6VKeYICSABJIAEkEAwBNxut0ajEQgE5eXldrs9mCDwGiQwYQTQWScMLQaMBJBABBDAvgERUMiRkkWDwZCampqfnz8wMBApecZ8sooAOiurigsTiwSQAMMI4BgshhUIJicYAhaLpbCwUCKRtLe3B3M9XoMEwkIAnTUsmDESJIAEOEoAnZWjBRsp2XI4HJWVldh1NVLKm+X5RGdleQFi8pEAEphUAuisk4ofIw+eAHRdFQqFpaWlNpst+IDwSiQQLgLorOEijfEgASTARQLYn5WLpcr9PBmNxtTUVJlMZjKZuJ9bzCFXCKCzcqUkMR9IAAkgASSABB5HwGKxKBQKiUTS0tLyuHPxOBJgFgF0VmaVB6YGCSABJIAEkMBEEHA4HNXV1UKhUK1Wu1yuiYgCw0QCE0oAnXVC8WLgSAAJcJwA9g3geAFzIntut7upqUkoFCqVSuy6yokijdBMoLNGaMFjtpEAEggJARyDFRKMGMjEEejs7ExPT5dKpb29vRMXC4aMBMJAAJ01DJAxCiSABDhLAJ2Vs0XL/owNDQ0VFxeLxWKdTsf+3GAOkIAHnRUrARJAAkggeALorMGzwysnjIDT6aytrRUIBHv37sWuqxOGGQMONwF01nATx/iQABLgEgHsz8ql0uRGXrRaLXZd5UZRYi68CKCzegHBX5EAEkACSAAJsJJAZ2dnVlZWTk5Od3c3KzOAiUYCfgmgs/rFgweRABJAAkgACTCewPDwcElJiUgkam5uZnxiMYFIIEgC6KxBgsPLkAASQAIejwf7BmA1mFwCLpdLpVLx+XyVSoVdVye3LDD2iSaAzjrRhDF8JIAEuEwAx2BxuXQZn7fm5maRSFRSUjI8PMz4xGICkcB4CaCzjpcgXo8EkEAkE0BnjeTSn8S8d3d35+TkZGVlYdfVSSwFjDrMBNBZwwwco0MCSIBTBNBZOVWcbMgMdF0VCoVarZYN6cU0IoGQEUBnDRlKDAgJIIEIJID9WSOw0Ccryy6Xa+/evQKBoLa21ul0TlYyMF4kMFkE0FknizzGiwSQABKYKAJGo3GigsZwJ4mATqcTi8XFxcVDQ0OTlASMFglMMgF01kkuAIweCSABJBBaAtu2bZPJZKENE0ObRAK9vb1SqTQrK6uzs3MSk4FRI4FJJ4DOOulFgAlAAkiAxQQY2DdAqVSis7K4StGSbrPZlEqlUChsampyu920I7iJBCKRADprJJY65hkJIIFQEfA/BstkMpWUlKSmpkqlUpVKRe+D2NzcLJfLk5OTFQoFfei32+0+evSoTCZLTU0tKSmxWCwej8dutyuVys7OTplMlp+fDzs7OzsVCkVycnJhYWFbWxvkSK1WSyQSWLrTbreHKpsYTpgJuFwutVotEAiqq6sdDkeYY8fokAAzCaCzMrNcMFVIAAmwg4AfZ7XZbHw+v7i4WKvVHj16VCgUKhQKyFVtbS2Px6utrdVqtaWlpTweT6/XwyGFQjFjxgy1Wq3VanNycoRCoc1mGxoaoihKJBKtWrUqPz/f4XC0tbXxeDylUqnVaiG0hoYGj8ej1WrT09PFYrFKpULXYUcd8kllS0uLRCJRKBTwx4nPcdyBBCKUADprhBY8ZhsJIIGQEPDjrO3t7RRF2Ww2iKi9vb2ystLj8QwPD/N4PFBMOFRSUpKcnOzxeLq7uymKamlpgf0OhwOmNAJnLS8vh/1ut1soFJaWlsKvHo+nvr4+KioK2nGxbwDBwroNk8kkk8nS09NxFB3ryg4THAYC6KxhgIxRIAEkwFkCfvqzDg0NRUVFSSSS2trazs5O0h9Rq9VSFKXT6Yz/81NdXQ12q1aro6KiyJmEGjgrcVmTyURRlFqt/p8AjBBme3u7x+NBZyXcWLRhs9lKS0ux6yqLigyTGn4C6KzhZ44xIgEkECkEuru7V61aFRUVRVGUQCAAwVWpVBRFiX1+hoeHVSrViA234Kyk7c1oNFIUJRQKvcIAqUVnZVf1crvd0HW1srISu3Owq+wwtWEmgM4aZuAYHRJAAhFHwOVyGQwGhUJBUVRvb69Go6EoakQ7gXZWOiCDwWA2m72ctbe3l6Io0gWWfj62s3rRYPiv7e3tEomksLAQu64yvKQweUwggM7KhFLANCABJMBWAn76BjQ1NfH5fDJXgNlspiiqra3NYrFQFEW/sKKiQiQSuVwu6M9KZNTpdMKiR17O6na7BQJBSUkJoabVavl8vtlsRmclTBi+MTAwkJ+fn5qaajAYGJ5UTB4SYAgBdFaGFAQmAwkgAVYSGPFTPuTEZrPNmDEjPz+/6ZOfnJwcsVjscrk8Hs+2bdvIvAEVFRXQORWuUigUAoGgvr5eq9XKZDKhUGi3272c1ePxNDU1URRVUlKi1WrVavWMGTOKi4shhIqKihkzZmzbtg0XTGJmlbLb7eXl5UKhUKPR+PZdZmaaMVVIgAkE0FmZUAqYBiSABNhKwI+zejyegYEBmJ81PT29vLx8eHiY5FOr1ebn54vFYrlcrtPpyH7o3ZiVlZWcnFxaWgreCfOzQjMqOVOv1xcWFkokEqlUWl9fT+xneHhYoVDIZLLe3l5yMm4wgYDb7a6vrxcIBBUVFSN2DmFCIjENSICxBNBZGVs0mDAkgARYQMC/s7IgcbD2RAAAIABJREFUA5jEcBHQ6/USiUQul3v97RGu+DEeJMB6AuisrC9CzAASQAKTSIDeLXUSk4FRM5mA2WyGNc9IT2UmpxbThgQYSwCdlbFFgwlDAkgACSABdhNwOBwVFRUCgaChoYF03mB3ljD1SGDyCKCzTh57jBkJIAEkgAQ4SsDtdjc0NGDXVY4WL2Zrcgigs04Od4wVCSABbhDAvgHcKMfQ5kKv1ycnJ+fn5w8MDIQ2ZAwNCUQyAXTWSC59zDsSQALjJYBjsMZLkFvXWywWmMwB1tHlVuYwN0hgkgmgs05yAWD0SAAJsJoAOiuriy+EiXc4HJWVlTC3LnZdDSFYDAoJEALorAQFbiABJIAEAiVgsVimTJlCffLz6U9/Gh0lUHBcPM/tdms0GqFQWF5ebrfbuZhFzBMSYAQBdFZGFAMmAgkgAdYRyMvLA2f94he/yLrEY4JDRcBgMKSmpspkMuy6GiqkGA4SGI0AOutoZHA/EkACSMAfgdu3bz/xxBPR0dFqtdrfeXiMowRI19WWlhaOZhGzhQSYRQCdlVnlgalBAkiARQQWLlxIUVR3dzeL0oxJHT8Bh8NRXV0tFArVarXL5Rp/gBgCEkACgRBAZw2EEp6DBJAAEhiBwLlz52bOnImdWUdAw9Fdbre7qalJJBKVlpbabDaO5hKzhQQYSgCdlaEFg8lCAkiAFQR0Oh0r0omJHD8Bo9GYnp4ulUpNJtP4Q8MQkAASGCsBdNaxEsPzkQASGJXAwqRkGJaE/+Uqga+sWDFq8XP3gMViUSgUYrEY/0ThbiFjzlhAAJ2VBYWESUQCbCEQn/CkyerEfxwmkPDkk2ypjSFJp9PprK2tFQgEe/fuxa6rIUGKgSCBoAmgswaNDi9EAkjAmwA6K4dtFbIWUc6q1WqFQqFSqcSuq963Ov6OBCaDADrrZFDHOJEARwmgs6KzcqNqd3Z2ZmVlSaXS3t5ebuQIc4EEOEAAnZUDhYhZQAJMIYDOis7KlLoYbDqGhoaKi4tFIhF2XQ0WIV6HBCaKADrrRJHFcJFABBJAZ0VnZW+1d7lctbW1fD5fpVJh11X2liOmnMME0Fk5XLiYNSQQbgLorOis4a5zIYqvublZJBKVlJQMDw+HKEgMBgkggRATQGcNMVAMDglEMgF0VnRW1tX/7u7unE9+cD0z1pUdJjjSCKCzRlqJY36RwAQSQGdFZ53A6hXqoIeHh0tKSkQiUXNzc6jDxvCQABIIPQF01tAzxRCRQMQSQGdFZ2VF5Xe5XCqVis/n19bWOp1OVqQZE4kEkAA6K9YBJIAEQkYAnRWdNWSVacIC0ul0IpGouLh4aGhowiLBgJEAEgg9AXTW0DPFEJFAxBJAZ0VnZXLl7+3tlUqlWVlZnZ2dTE4npg0JIIERCaCzjogFdyIBJBAMAf/OWndYs+9Y01itrmjNOn3P3bFe1XimdUftvrFe5f/8VztunW2/PuI5XeaHy1fIq1QHqlQHRjwBdp5uu1ZQpPBzQhCHjmtbjDfvj+nCjOzc0ZC2GvuLlWV+QmPpOlg2m02pVAqFQq1WG0zNxmuQABJgAAF0VgYUAiYBCXCFgH9nLShSjNWuTFbnEmmeH4Ua7VCxsqzV2D/a0eD2l2+vqTusGfHa49qW6j2HyrfXlG+vGfEE2Hny/OWs3GV+TgjiUFbusks37ozpwtNt13os9hEv2VG7r/FM64iHYCfrnNXlcu3du1cgEGDXVa48ZjAfkUsAnTVyyx5zjgRCTsC/sy6R5tGb8Y5rW3btP9Zlfli0Zl1Gdm7SorRd+4+ZrM66w5ry7TXzRAmnLlw92379+U07TFanomTjUtnK/KdX1R3WEKkC/9uys27LzjoI4bi2BdQKDh1p0i3OzE5JyyxWlvUNOkxWZ/n2msWZ2Yszs+HMvkHH+rKtKWmZGdm5py5cNfTfg8QoSjZCwhZnZmflLms19uuudM0TJYgXLGw800oPFqJTlGxsNfYTZ31hy4vVew4Z+u+t27gZTtiys67xTOvJ85clSSnLV8gXZ2YTu921/xgkCYS48Uzruo2bxQsWVu85tG7j5i076+AoKHirsT8rd1lGdu4zzxZ3mR/WHdbMnDV7cWa2of/eqQtXM7JzF2dmr9u4uW/Q0TfoKFaWLc7MzsjOJcQgMQVFCkP/vb5Bx7qNmyHvhFteQWGX+SGcNuJ/2eWsOp1OLBYrFAqLxRLy2o4BIgEkEGYC6KxhBo7RIQEuE/DjrKfbrr2w5UWT1SlesBA+TC+R5p1uu1alOgAf8Q3996ZOiwKtXL5Cru+522V+uLlq94lzF01WJ0VRJ89f1vfcpTd2UhRlsjqL1qzLf3pV36DjdNs18YKFJqvz0o07q9duMFmd8eLEjtsPTFZnsbLs0o07+4415RUU9g06Om4/EC9YeOnGnS0764rWrDNZna+81pORnXvpxp2p06LOtl839N9TlGzcXLUbDkmSUiBhoJUQLEghtHGCIoOzrtu4Gazx0o07pFW1aM26usOak+cvz5w1+9WOW32DjiXSvOPalsYzrRnZuT0We5f5YUpa5tn263WHNeIFC1/tuGW8eT8rdxnAqVIdUJRs7Bt0iBcshP4JVaoD8BEf2lk7bj+YJ0qAxIDpnjx/Oa+gEGgoSjbSBRTO3Fy1Gyjpe+7GzZ1v6L/XY7EvXyGnn+m7zRZnNZlMMpksPT3daDRy+ZbDvCGBSCKAzhpJpY15RQITTMCPs5Zvrzl5/rLJ6txctbtKdcDQfw9E0GR1njh3cUftvtVrN4CDlm+veelgI9jS8hVy+IodN3c+7BnRWckn+3miBJPVuWv/sXpNs8nqXL12g3jBwuc37Tjdds1kdRYUKfIKCsEskxal7TvWtFS2EpwYAr90405KWiZsx4sT123cDCfz58RcunGHRL167QZJUgoJ9tWOWyCF5dtrYmLjpkdHgyiP6KzgkZBIsNsl0jyIJSt32ZaddXWHNaDRJquTfPc/ef5y0Zp1r7zWw58TQ8w4XpxIzjmubZknSoBDRWvWLZHmGfrvzRMlLF8hhxZfyBT8F5w1K3eZ7koX7Hnm2WJ1o7bxTOuWnXX0M323me+sNputtLRUJBI1NTW53e4JrvIYPBJAAuEjgM4aPtYYExLgPAE/zrpEmgdf5/U9d5MWpVWpDoAerS/bunyFvF7T3GrsJ84KDgoDm4hmwQYRR2h8hXZWL2fNKygEa4RW0h21++LFifWa5oIixeaq3SfPX4Z/hv57dGc9236dbpnx4kR1o5ac3GOx06N+5bWeLTvrINjqPYeONOmgIbagSLGjdh9I56UbdxZnZkOySTsr3VnXl20FbSWxXLpxx7+zxosTyckg4uC1x7UtGdm55BDIaI/F3nimtVhZFjd3Pr0Dq6+zFhQp1I3aYmXZK6/1+HoqfQ+TndXlcqnVaqFQWF1d7XA4OH+7YQaRQKQRQGeNtBLH/CKBCSQwmrN23H5AXA2GVcWLE0kPARC+I006L2et1zRX7zkEwgQNqCarkxihulFL+gbQnbXHYl8qW0muglgUJRurVAfqDmuWylb2WOwdtx/EixNfea2HhKa70gW9BcjX/NVrN0BnhlZjPzhf+faazVW7u8wP54kSSLDVew4tXyGHPqDQzNk36EhalAbD+WfOmt1x+wE0eZK+Afqeuz0W++LM7FMXrjaeaU1Jy+y4/aDHYoeOp36ctW/QMU+UAM3V1XsOwRQEWbnLoDND3Nz5YJzry7Y+v2nHkSYddJnoMj+MiY3ruP1Ad6ULXJb0DShas65v0KHvuRsTG2fov0fyTpdUr23GOmtLS4tEIiksLMSuqxN4h2PQSGBSCaCzTip+jBwJcIvAaM7aeKaVaKXJ6jyubSGDk2DkEHwfh2mtyCir8u01ZOw/mSLKePN+/tOr4sWJ5dtrYCcMbwK1KihSnG2/Tma5Oq5tgUFIq9duAK0kQ5ogPTAGCwZa6a500UdNdZkfrl67AQ5Bi+bZ9utJi9LqNc3QqJmRnQtDtZ55thhirzusgWB1V7qeeba4b9BRpTogXrBwqWwlJFJ3pWvdxs15BYWLM7NhwBl0EoBEQsMz/QP9uo2bDf33TFan7koXHG019i+VrczIzs1/ehUc2rX/WNKiNH3P3dNt17Jyly3OzIbMkqxlZOeqG7UwuA2SR8ZgrS/bSgZp0fPu5an0XxnorAMDAzKZLDU11WAwcOt+wtwgASTwdwTQWf8OB/6CBJDAeAiM5qx06cFtVhNglLPa7fby8nKhUKjRaLDr6njuXLwWCbCCADorK4oJE4kE2EEAnZXVPhpI4hnirG63u76+XiAQVFZWYtdVdjwdMJVIYNwE0FnHjRADQAJI4H8IoLMGon2sPocJztre3i6RSORyOXZd/Z87D/+PBCKCADprRBQzZhIJhIcAOiurfTSQxE+usw4MDOTn5ycnJ+v1+vBUaYwFCSAB5hBAZ2VOWWBKkADrCaCzBqJ9rD5nspzV4XBUVFQIBIKGhgbsusr6JwVmAAkERQCdNShseBESQAIjEZggZ11fthVG7jPE9lqN/SQ9dYc1+441nW2/furC1RGTl5GdO+J+lu4Mv7O63e6GhgaBQFBRUYFdV0e67XAfEogUAuiskVLSmE8kEAYCE+SsrcZ+skYAE1SPvrhAQZHCePM+LBkwYtrIzLIjHmXdzjA7q16vT05OlsvlZrM5DBUYo0ACSIDJBNBZmVw6mDYkwDICfpxV3ajNyM5dnJm9vmyryersG3Q8v2nH4szsxZnZx7UtMHtosbIMVkwlE6xWqQ7AfKUwGT7MrpqSlgkTjpIZSWGeVAgEwly+Qg6aW69pTknLXJyZvblqt8nqJPObFhQpuswPeyz2YmVZSlomzOcPITSeaQWVJPO/lm+vWZyZnbQo7cS5i7orXfNECeIFCxvPtPYNOpZI83RXumJi48QLFuqudL3yWk9Gdm5Gdi7MgWqyOsFZW439eQWFhv57XeaHRWvWwbSvMPvslp11VaoDGdm5SYvSRmusZY7ahs1ZzWazXC6XSCTYdZVlTwFMLhKYMALorBOGFgNGApFHwI+zTo+O7rj9oG/QAQsH7Np/DBZhgjWiDP33yrfXLJHm6XvuXrpxZ54oARZ6jRcnQismrEqakZ0Lq1hJklKMN+/PEyXAyk/l22ue37Sjy/wwIzsX1g4oWrNu37EmCMrQf69v0JGVu+yV13pS0jJBkcu31+yo3ff8ph2Kko0mq1Pfczdu7nxIBln+AHSzaM06SOqJcxeTFqXBGq1wzum2a7BWFmlnFS9YCN5ZvecQLP01T5TQauwn+4uVZWDPr7zWI0lKgbVnIQ1HmnRLpHnM0dMRUxIGZ3U4HNu2bRMIBPX19dh1NfKeIphjJDAqAXTWUdHgASSABMZKwI+zPvNssSQp5YUtL55tv26yOpevkD/zbDEsdipJSqnXNJdvr6lSHSANnCfOXTx5/nL+06vA6k6ev1y+vYYs5WqyOk+3XZsnSoAQFCUbU9IyTVanof9e3WHN85t2iBcshJ6mq9duIO7VY7HHxMaRX01WJ4gsiVTdqKV/9yfOWq9pNlmdYMB0Zy3fXgOGCs566cYdSAY0JE+dFgXtrHFz50PrssnqhIZkSDZ/TsylG3eK1qw7ce4ihB/I6qn09Id/e0Kd1e12azQaoVBYXl5ut9vHWv3wfCSABLhNAJ2V2+WLuUMCYSXgx1nJAqRxc+cf17bAcqbQenry/GWvBs7GM63PPFu8eu0GaBMtWrPOy1lfea3nxLmLkqQUEsLptmvglNV7Dp26cPX5TTu8nPXSjTv6nrvEWTtuP2g19ns5K6gztKH2WOzEWU+evzyisy6R5kF7MHFWaIg1WZ09Fvv06Ghw1rPt1+eJEqB7Q7w4Ud2oJcnusdghd+isBoMhNTU1Pz9/YGAgrLUWI0MCSIAlBNBZWVJQmEwkwAYCfpw1JjbO0H8PGk1fOthYpTqQV1DYN+gw3rwfL058teMWvYGzb9AhXrAwXpxIjPDk+cunLlyFvgHQnQC+5oMIlm+vUZRsrNc0w7f1jtsPJEkp5dtrwGKNN+/3WOwpaZmn264tzsyG7qrl22vWl23dXLUbvsu/2nEL+gZs2VkHbaIvHWz046w7avfpe+5CMzBkatf+Yz0We7w4EQQXMkj6sx7XtiQtSusbdKxeuwG6E7Qa++Pmzkdn9Xg8FoulsLBQIpG0t7ezoZpjGpEAEpgcAuisk8MdY0UCnCTgx1mPNOkWZ2ZnZOcWK8v6Bh30MVj7jjV5DX4yWZ1VqgOkq8CWnXXgptV7DmVk52blLoP2VzIGq2jNOhhQVVCkWJyZXVCkIJcf17bAoKhd+4+ZrM5XO24tXyFfnJm9eu2GLvPDvkHH+rKtMCIKXNbQf2+pbGW8OLF8e826jZtNVieJ3dB/D0ZlnW67lrQorVhZRnq+Np5pTVqUdvL8ZRjjtTgzu2jNOnB0uMRkda4v23qkSddlfrh67QaIESbMoocPMYb/i3/gMYa2b4DD4aisrBQIBGq12uVycfKmwEwhASQQKgLorKEiieEgASTg8eOsgVsRnslkAqFyVrfb3dTUJBQKS0tLbTYb3jxIAAkggccSQGd9LCI8AQkggUAJoLMyWTdDkraQOKvRaExPT5fJZCaTKdC6hechASQQ8QTQWSO+CiAAJBA6AuisIfFCJgcyTme1WCwKhUIikbS0tISu3mFISAAJRAQBdNaIKGbMJBIIDwF0VibrZkjSFrSzOhyO6upq7LoanjsRY0ECnCSAzsrJYsVMIYHJIYDOGhIvZHIgwTkrdF1VKpXYdXVy7kyMFQlwggA6KyeKETOBBJhBAJ2VyboZkrSN1Vk7OzuzsrKkUmlvby8zKimmAgkgAbYSQGdla8lhupEAAwmgs4bEC5kcSODOOjQ0VFxcLBaLdTodA+sqJgkJIAHWEUBnZV2RYYKRAHMJoLMyWTdDkrZAnNXpdNbW1goEgr179+Ksq8y9XScyZRaLBfuBTCTgCA0bnTVCCx6zjQQmggA6a0i8kMmBPNZZtVqtUCgsKSkZHh4OYR1ra2tramoaLUCz2VxZWUk/2tTU1NbWRt/T+8lPe3s7cSmn06lUKru7u+mnjbg9NDTk8Xj8p2HEC+12u1fCRjyN7HS73Xa7Pbi4SCBkQ61WKz/5qaioqK+vJxknJ0zEhtvtrq2tFYvFEolErVZ7PJ7Ozk5IBv2/UDput7uhoUGhUMjl8traWsg7XALXQgrNZrNSqezs7IQNejiA12w2l5eX0/9AIhUALvQqhdGKEgra4/GMh5VGo+ns7PR4PGazWa1WjxaXF/zKykqz2ey1M1S/2u12p9M5ptAaGhoC78/T9skPhG8ymY4ePeonrqNHj5KC9ng8vb29/s+nB4XOSqeB20gACYyLADecte6wxuvfvmNNr3bcGo9K6q501R3WwMpY4wln0q/146zd3d1ZWVk5OTmBWOBY65lKpVIqlaNdZTQaxWIx/ahSqVSpVF57QFKJ2Wi1WpFItGrVKvppvtvbtm2DoPynwfdCj8czVmfdtm2bVqsNlbPKZLJVq1apPvkpKSkRiUQOh2PEdIZw5969e2UyWX19vVarlUgkzc3NJpMJ0iCTydLT02HbaDS6XC7pJz86nU6v15eWlgqFQvA2rVYrk8kgVWazWSgUQhEYjUY+nw8hwH9Bd4xGI0VRdDElFSA9Pb27uzsnJ4eexxGLkhR0b29vfn4+/fwxbUulUuCsVqu1Wu2IcfkGKBaLjUaj7/6Q7OHz+UTHAwwwKysrcM2lO6tKpfLTHai+vp6iKHpi/J/vlVp0Vi8g+CsSQALBE+CGs1Kj/OQ/varHYg/OGsu311AUdfL85eAuZ85VIzrr8PAwKFFzc3PgtWdgYKClpcVisXg8HpfLRV7YZNtmsw0NDRmNxt7eXv8v/kCcVSaTabVaiqJIRDKZrLm5mc/nkybhoaEh0tY19MmPzWaTy+VKpXJoaAjSYLFYWlpa6C/d4eHhlpYWaFqDvJhMpqGhIb1e73Q6weBNJpOR9gNO43Q69Xp9S0sLJADiqq6uhqhJSiB80ujlcrlMJpPD4WhpaSF/HjgcDpIvUgSQZfJramoqaXu22Wz0yz0ej9vt7u7ubm5uJhFBMgwGA6TE5XLp9fr29nYi/d3d3Xa7va2tja7ChYWF2k9+oOAGBgZIArwKce/evVKp1O12kxOqq6tBVYmzgrCSdjjfgoZrjUajRCLh8/kECDir2+0uKSmx2Wy1tbUkFo/H41uU9II+evQomK7L5eru7rbZbDqdjhSHx+OxWCw6nY6AIjUW/kqRSqUQV35+/vDwMD3XnZ2ddrsdwMI5ZFssFhsMBr1ebzQa6UxMJpNOpyP1jV4osG02m0kVgjC9CtdkMlEUpdPpoOC8jno8HofD0dbWZjAYSMkODw+Tvxmgwuv1ejgK1Q8CIUxILjweT05OzvDwML02WiwWSL9cLpdKpQKBgGTH4/EQxacX0Gjb6KyjkcH9SAAJjJkAZ5w1/+lVl27cIf9OnLuYlbuMoqj1ZVuD00euOqvL5VKpVND0RV54gdSbbdu2paamVlZWSiSSpqamoaEhivrb+4hsa7XarKys5ORkhUJBf/H7hu+rMqSZjZxss9mcTufQ0BCk02Kx8Pl8l8tFP5MeCzTjdXZ2SiSS9PT0trY2lUolFAplMllJSQmfzwdJbW5uFgqF27Ztk0qlMpnM5XINDQ0lf/KTnp7e29sLDcDkM71cLufxeAMDA729vSKRqPyTHz6fbzAYIC6pVApxQbsyTBNWWVmZk5OTn5/vdruHhoYkEklOTo5SqRSLxdXV1R6PBxoaSWZhg+6sFouFuEJbW5tIJKqsrMzPz1coFG632+VyZWVlyeXyyspKsVi8bds2EDuxWJyenl5aWjo8PJycnKxUKktLS8ViMTgHHM3JySEqDFfl5OTs3buXbi2QHjpej8eTmprq1SBnt9spihoeHgZn9RJWyKZXgzqEbDQaZTJZQ0ODRCKB1kFSrC6Xy/3JDx0OFKVUKoWiNBqN9IKWy+VCobCysnJoaIj//9s7vxDHrvsAX1jRCq+8HmqFvXVujaiFI1IlyGa2lsNQFDohQzqYoWxhoENQyISIZnDWZhxUW4RLs8YT2NBxmMCY7INop3hDF1pqOVmoqKiFvSzrIsrErGGKBTuBCczDPOhhHvRwS/yDX46k8Yx27/w5uvoGs5x77znn/s53zvF8Ojr3zsREPp+vVCrpdPrq1atBEMj6caVSyefzCwsLQRDoiA2C4MaNG7Ik3Ol0Jicn1Y+DILhy5YrQlqGlTCR/KpXyPG9paUnETrS1WCzm8/lyuSzTxOwUaWAmkykUCvPz8/F4XAbkYOeurKw4jnP58mX5gNHX9VtbW57nXblypVgs6kp8tVqVvRm+72ez2XK5PD09nclkZHh7npfL5SSqtbU1iUpasbe3J8rueZ46fT6fv3XrVhAE8plWx48oft8SuNlNg2mcdZAJZyAAgYckEBlnfeFv/rbPTd/79W8eOX/+8c9d7Ds/5GEknXVjY8PzvPn5eV2nHHLcbG5uJpNJcYtWq1Uqlczf+pquVquZTEZ+effpTt+NxNj61sfll2hfTj0sl8ulUkk0yPO8wbuoWKj9+L6vv1+vXLmytLS0v78/MTFh/m5eX1+X+MXq2u226VidTiefz8uv+Y1PfySe5eVlibZYLMreAGmv1C9Lld1uN5/Pq98L82azadavrZNEoVAwmSwtLcl6ajKZ1JhFkVutlnhqEAT1el3q9H1fF9sWFxd1qXJlZUVcLZVKra+v99202+3KH49IpVKVSsVcMuzrxHg8Pui1yWSy0WiIF7quOzExIbjkLo1GIxaLpYwf2Q8gzhoEQaFQkGZqr/WFJ4e+74tQBkFQLpf7imht0pXyVcD29nYikdjb25udnZVW7+/vm5tupWbdIV2r1eTjhLRahdU0PDOdSqV0OXlqaurGjRv1ej2dTgtAuXun0zEHodlBS0tLvu93u93Bzg2CQL6OP/BqtVqdmZmR4GV0BUEwPz8vo858p7LrurKeGo/HZfhtbW0lEgn54CoDWJW9UqnIiLp3757OL7mL6ayaXy4d+S/OeiQiMkAAAsMSiLCztu53nvCedBxHJfWn1ZvPXHr+kfPnH73w2HNTX+373v/Gr97/SuFrornf/O73v/V3L0dpb4BsEJycnNQvxIcdIp/mM39NSkH1VHPVqlqt6h7WPt0JgmB5eVmexWk2m8Oss5oRdrtdsW0R01gsJn9L1rzLgc7aF0+73XZdV2uW4uZJ01m73e7c3JyIsrjjzZs3l5eX5+bmdL9mn7O2Wi3P88z6FxcXzTrNtGbThK6zdjqdVquVy+WuXbu2tbXlOI4+xpROp8U2ZNfpwsJCOp1WZxXrCoIgk8lMT09LqZmZmXQ6HQTBIVswq9Xq2tra5OSk1iB+pgCDIEgmk/V6XaOVRCwWu3v3brValU5pNpuJRKLVasnVRqPheZ6Yk/wrT/OYlplIJBqNxpHOqpFop2sRszbzI0EqlWo2m7VaLR6Py+qjfjmurchms5JeWlqS1vm+n0gkYrGYLirr0OpzVq2tUqksLy9fvXo1nU5rTyUSCdkko9t2fd9XvFKnzCMtop0rznpg1+/s7KTTadd1i8VirVaTkZnJZKQVu7u7q6urpVJpamoqHo8Lc9V9GQMSlX7okv8nbG1tua4rD+RpkFKn6ayq+Arw8ATOejgfrkIAAg9AIMLOKuusT3hPirOWf/QTx3HSX/jiK/6PX668nnrq6XOx2LX1Dbl641fvi62++Pf/8HLl9T9J/ekj589Hw1k/73nFYtF1XVkOfIDBYWTd2NjQBbwgCGT354F7AwbFQqtZXV2V39OyVdR0iyAI1D80v5mo1WqpVEq2XVar1YWFBVlqUn0xZUKr6rsqm1wnJia05kqlcohTyte+uu64tLS2sYFhAAANvElEQVSUz+fNR5QkbHOddXNz03RiWRE0PdVMaxiaUGeVM77vT09Pt9vtRCJhap/shXVdd3V1VZxMnVVERJy1Wq1qKVlmO9BZr1+/Ll/uNxqNWq1mdrQJMAiCubk5XbuVCOv1+sTERLfb1f2ssg6q3/gPfjiRgmqZQRCsra2lUinZT6Io+hJmJJrWjtba+vB6nif7ZTudTq1WW1xcFJJaeavVmp+fl8NcLie7UHzfn5qaqtfryWRSDNt01kqlIpBTqZTu/ZV196tXr87NzSlz2dZilh1MH9i5us4qy6JmhboRudls+r6fTCavX79++/ZtmXf7+/uybUDetiGu2W63c7mcNtl13c3NTY0km83qCC8UCvV63fM8WajWIqazqhzr1cMTOOvhfLgKAQg8AIHIOGvfftaf/+KXz1x63nGc0kuvtu53bt35+Fws9qVnL334yZ5I6vv3fpt66ulHLzz2/r3ftu53vlL42h/8YVxfNVD/n/97/HMXo+GsFy5cqFQqwz9QfODokW2C8jqhWq2WyWT29vZkI6M4h/jr4eusZs2DKqP+YWbTdJ/QbG9vO46ztbW1uroqD4zLF/G6dCQJlRtzydB1Xdmr1+l0stnsxsaGKTqavnbtWjabNblls1lZ3JV7yeJZsVjUDYLFYrHb7Zr1ZzIZeRxHBV3rl42G2kBJmM66u7srq55Sp75qSnaj+r6vsuX7/qCzlkolzVAulxcXFz9rnXV2drZcLler1Uajsby8LLsIJB4ToHxWSSQSsrYnDzZlMplr167JnlGV3W63Ozk5KRY12NFSs1qmNjwWi6lwy0nzXzMSTeuYaTQasglEli1FJe/eveu67v7+/uzsrHacWKxsMg6CQF4UIG2ZnZ2VO2r9i4uLly9flmzytgppmjqrJDqdTjqdbjabt2/fdl1Xpsnm5mYqlZK9AdouNUXzI5brun2dq856YNevra3p2r+8OUEf5G+1WolEQhx0c3NTnl9st9uyITsIglu3bsn3ABLJ5uamDhLpxFwup0+kKX91VlPx9erhCZz1cD5chQAEHoBAZJzV3AWo6a+/cFkk9bU33nQcR1dVRVv15J2t3XOx2PQ35uS8/BvJ/awPMDIGsspiWKFQ8DxPvkwslUqu68pzLSfqrLu7u7FYrG/tRx4/2tnZkeeKstmsem21Wo3H47IeNrju22w2Pc+bmppKp9OlUkn0ZdApHcdJJpO6D3N1dXV9fd113fn5eWmySMz6+no8HhcDkHuZ9cu2S/VU2Uch9/qsZ7B09CYSifn5eZFmrTOVSokZy4Lu7Ozs9PR0qVTq26Qoz8pMT09ns9l8Pp/JZITegeus9+7dk2Zms9lMJmPudVZ70+FQr9czmYw80+O6rghrn7PKi04TiYR4sLZIE/JyCXVcwZJIJNTt9HaaMCPRtHa0rFZOTk622+1kMilP17muK3pdr9flUTx5KM3czVIoFEQx19fXdRuu1r+3t+d5nrx0Qpqcy+UWFhbUWWdmZvL5fDqd1i/Tfd/3PK9QKLiuK+8nPtBTTWcd7FzZ5ptMJlut1uDV3d3dbDaby+WkZ7e3t/P5vKy/drtdeT3Z3NzczMzM5OSkBD8xMZHL5QqFgmyW0LuvrKyYL1HudDqJRMI8I/zVWVXxtV+OTOCsRyIiAwQgMCyByDjrF/7sy6WXXtX/XnvjzX/9zzvqoN958QeO4+gyqpz/+S9+6TjO91754bsffKQrslrk9TevR2Od9cB3XQ07PnrzmU/xy5WdT396c532kUinuSAqxtZ3xgxLiujXrOalw9N7e3vtdlu/S5XMg69/f+j6D7m71Gm+2l1Wag9vhbx97JBq5VK32xUd6WvaZxXc3t4e5PBZmU/0vMLvdDrS2FQqJazM12IIK5OeRKV/iWB3d9fMPxiz1Dk4qLa3t/uqlUEymHOwTj0z2Lki1pLhwKvSBZLB/JgRBMH29ra2Sz8mDTKRaXJ4qzVCSRxJqS//7xaMB09xBgIQgMDDEYiMsw6+N0Dts3W/883vft9xnHc/+Mg8Kc5aeunVA531p9WbOOvDDSpKjSKBnZ2dw/V3JBplLmmPRMCnEOTZMsFZT6GLuQUExoXAmDjrK/6PHcd56+13TGeVldSVn1Xf+/VvHMf5q7+eN6/KM1t97xYwM4xK+hjXWcdlVtDOkSXQ6XRk6+rItuD4Az9bJjjr8fcoNUJgbAmMibP+x3v/6zjO11+4rKL54Sd7z1x6/lwsduvOx637neemvvrohcf0L7V++Mnel569xDrr2M4LGg4BCBwLAZz1WDBSCQQg8DsCY+KsrfudywvfFm196+13fvbP//YXfznjOM53XvyBWOy/1P77XCyWeurpf7x+462335n+xty5WAxnZZJAAAIQCEMAZw1Dj7IQgEAPgWg46xPek0f+jdYPP9n73is/nPijx+Xh5Yt//PnX3nhTl11b9ztvvf1O6qmn5eoXv/xs+Uc/ecJ78p/+/b/MPKOYZm9Az4jnAAIQOEUCOOspwuZWEIg6gWg46wOp5LsffCT7AQ4sdevOx7pD4MAMI3cSZ436JKZ9ELCXAM5qb98QGQRGjsAYOuvISWfIgHHWkZuVBAyByBDAWSPTlTQEAmdPAGcNaYT2F8dZz36aEQEExpUAzjquPU+7IXACBHBW+6UzZIQ46wnMG6qEAASGIoCzDoWJTBCAwDAEcNaQRmh/cZx1mIlAHghA4CQI4KwnQZU6ITCmBHBW+6UzZIQ465jObZoNAQsI4KwWdAIhQCAqBHDWkEZof3GcNSqTlXZAYPQI4Kyj12dEDAFrCeCs9ktnyAhxVmtnH4FBIPIEcNbIdzENhMDpEcBZQxqh/cVx1tObTtwJAhDoJYCz9vLgCAIQCEEAZ7VfOkNGiLOGmB8UhQAEQhHAWUPhozAEIGASwFlDGqH9xXFWc8CThgAETpMAznqatLkXBCJOAGe1XzpDRoizRnwO0zwIWEwAZ7W4cwgNAqNGAGcNaYT2F8dZR21SEi8EokMAZ41OX9ISCJw5AZzVfukMGSHOeuazjAAgMLYEcNax7XoaDoHjJ4CzhjRC+4vjrMc/bagRAhAYjgDOOhwnckEAAkMQwFntl86QEeKsQ8wDskAAAidCAGc9EaxUCoHxJICzhjRC+4vjrOM5tWk1BGwggLPa0AvEAIGIEMBZ7ZfOkBHirBGZqzQDAiNIAGcdwU4jZAjYSgBnDWmE9hfHWW2dfMQFgegTwFmj38e0EAKnRgBntV86Q0aIs57abOJGEIBAHwGctQ8IhxCAwMMTwFlDGqH9xXHWh58elIQABMIRwFnD8aM0BCBgEMBZ7ZfOkBHirMZ4JwkBCJwqAZz1VHFzMwhEmwDOGtII7S+Os0Z7CtM6CNhMAGe1uXeIDQIjRgBntV86Q0aIs47YnCRcCESIAM4aoc6kKRA4awI4a0gjtL84znrWk4z7Q2B8CeCs49v3tBwCx04AZ7VfOkNGiLMe+6yhQghAYEgCOOuQoMgGAQgcTQBnDWmE9hfHWY+eBuSAAAROhgDOejJcqRUCY0kAZ7VfOkNGiLOO5cym0RCwggDOakU3EAQEokEAZw1phPYXx1mjMVVpBQRGkQDOOoq9RswQsJQAzmq/dIaMEGe1dO4RFgTGgADOOgadTBMhcFoEcNaQRmh/cZz1tCYT94EABPoJ4Kz9RDiGAAQemgDOar90howQZ33o2UFBCEAgJAGcNSRAikMAAr8ngLOGNEL7i+Osvx/upCAAgdMlgLOeLm/uBoFIE8BZ7ZfOkBHirJGewTQOAlYTwFmt7h6Cg8BoEcBZQxqh/cVx1tGakkQLgSgRwFmj1Ju0BQJnTABntV86Q0aIs57xHOP2EBhjAjjrGHc+TYfAcRPAWUMaof3FcdbjnjTUBwEIDEsAZx2WFPkgAIEjCeCs9ktnyAhx1iNnARkgAIETIoCznhBYqoXAOBLAWUMaof3FcdZxnNi0GQJ2EMBZ7egHooBAJAjgrPZLZ8gIcdZIzFQaAYGRJICzjmS3ETQE7CSAs4Y0QvuL46x2Tj2igsA4EMBZx6GXaSMETonAxYuuw0+kCfz5c/lTGkzcBgIQgEAvAZy1lwdHEIAABCAAAQhAAAL2EcBZ7esTIoIABCAAAQhAAAIQ6CWAs/by4AgCEIAABCAAAQhAwD4COKt9fUJEEIAABCAAAQhAAAK9BHDWXh4cQQACEIAABCAAAQjYRwBnta9PiAgCEIAABCAAAQhAoJcAztrLgyMIQAACEIAABCAAAfsI4Kz29QkRQQACEIAABCAAAQj0EsBZe3lwBAEIQAACEIAABCBgHwGc1b4+ISIIQAACEIAABCAAgV4COGsvD44gAAEIQAACEIAABOwjgLPa1ydEBAEIQAACEIAABCDQSwBn7eXBEQQgAAEIQAACEICAfQRwVvv6hIggAAEIQAACEIAABHoJ4Ky9PDiCAAQgAAEIQAACELCPAM5qX58QEQQgAAEIQAACEIBALwGctZcHRxCAAAQgAAEIQAAC9hHAWe3rEyKCAAQgAAEIQAACEOglgLP28uAIAhCAAAQgAAEIQMA+AjirfX1CRBCAAAQgAAEIQAACvQRw1l4eHEEAAhCAAAQgAAEI2EcAZ7WvT4gIAhCAAAQgAAEIQKCXAM7ay4MjCEAAAhCAAAQgAAH7COCs9vUJEUEAAhCAAAQgAAEI9BL4fwRKHn9TZQYTAAAAAElFTkSuQmCC;" vertex="1" parent="1">
          <mxGeometry x="22.83" y="620" width="684.34" height="419" as="geometry" />
        </mxCell>
      </root>
    </mxGraphModel>
  </diagram>
</mxfile>
